<svg width="1440" height="4392" fill="none" xmlns="http://www.w3.org/2000/svg"><g clip-path="url(#a)"><g opacity=".5" filter="url(#b)"><ellipse cx="1346.5" cy="3115" rx="311.5" ry="311" fill="#FFF1CD"/></g><g opacity=".5" filter="url(#c)"><ellipse cx="76" cy="3200" rx="228" ry="221" fill="#FDD"/></g><g opacity=".1" filter="url(#d)"><ellipse cx="-75" cy="1582.5" rx="288" ry="274.5" fill="#90BE6D"/></g><g opacity=".7" filter="url(#e)"><circle cx="-115" cy="2432" r="155" fill="#90BE6D"/></g><g opacity=".7" filter="url(#f)"><ellipse cx="1440" cy="2031.5" rx="288" ry="274.5" fill="#FFF1CD"/></g><g filter="url(#g)"><circle cx="-32" cy="321" r="155" fill="#90BE6D"/></g><g opacity=".5" filter="url(#h)"><ellipse cx="1480" cy="3950" rx="232" ry="221" fill="#FDD"/></g><g opacity=".7" filter="url(#i)"><circle cx="1360" cy="688" r="254" fill="#FFF1CD"/></g><path d="M78.648 3156.45c-.027-.47-2.906-.83-6.464-.93-3.481-.1-7.813-.23-9.52-.36l-3.26-.27 2.252-7.55c1.29-4.25 2.421-8.57 2.506-9.73.314-2.49.935-2.45-14.595-1.29l-7.459.52 2.852-9.13c1.628-5.05 2.679-9.44 2.425-9.81-.25-.29-4.953-.16-10.402.39-6.137.68-9.993.76-10.021.29-.023-.38 1.205-3.08 2.728-6.03 1.527-2.88 2.804-6.04 2.898-7.05.048-1.78.048-1.78-10.032-1.18l-10.003.6 2.542-6.57c3.765-9.34 3.688-9.34-6.296-8.43-4.53.43-8.229.57-8.247.26-.018-.31 1.047-3.15 2.32-6.4 2.826-6.96 2.893-8.44.467-7.67-.91.28-2.891.71-4.34 1.03-1.452.24-4.661.82-7.105 1.27-5.041.92-5.123.85-3.642-6.66 1.248-6.25 1.028-8.63-.7-7.84-.679.28-3.484 1.14-6.218 1.92-2.733.78-5.538 1.65-6.217 1.92-1.353.62-1.411.93.834-8.01.554-2.35.819-4.38.574-4.59-.244-.22-3.182-.28-6.572-.15-6.007.28-6.084.29-4.945-1.33a60.83 60.83 0 0 1 2.966-3.34c.945-.99 1.352-1.94.876-2.14-.802-.49-7.457 7.01-7.379 8.32.033.54 2.59.7 7.053.43 3.77-.23 6.79-.1 6.582.3-.212.32-.771 2.6-1.253 4.87-.478 2.34-1.086 5.08-1.334 6.1-.437 1.73-.279 1.8 2.16 1.27 1.449-.32 3.956-1.01 5.616-1.65 1.665-.57 3.937-1.32 5.077-1.62 2.055-.51 2.136-.44 1.822 2.05-.143 1.48-.539 3.9-.836 5.39-.297 1.48-.462 3.89-.38 5.27.13 2.16.379 2.45 1.822 2.06 5.168-1.39 14.41-3.11 14.74-2.74.322.21-.115 1.94-.851 3.84-1.463 3.95-3.372 9.47-3.349 9.86.01.15 3.79.08 8.483-.2 4.924-.3 8.482-.2 8.51.26.023.39-.69 2.67-1.629 5.05-.939 2.37-1.643 4.81-1.601 5.5.037.62-.302 1.41-.673 1.66-.448.26-.71 1.05-.668 1.74.064 1.08 1.223 1.09 10.357.16l10.283-1.08-3.37 6.92c-1.856 3.82-3.332 7.54-3.286 8.31.092 1.54 1.708 1.45 17.47-.97l3.984-.54-.953 2.14c-.542 1.27-.998 2.69-.966 3.23.033.53-.215 1.55-.554 2.35-1.969 4.52-4.103 11.45-3.618 11.8.245.22 5.255.08 11.176-.36 5.92-.43 10.772-.64 10.781-.49.01.16-.753 2.91-1.641 6.13-2.94 10.22-3.409 12.72-2.838 13.23 1.056.86 21.112.51 21.061-.33Z" fill="#F7A0AF"/><path fill-rule="evenodd" clip-rule="evenodd" d="M1433.15 1293.4c-16.06 5.67-29.76 14.39-41.66 26.51-17.74 18.08-28.22 39.99-31.07 64.93-1.19 10.39.28 31.59 2.92 42.11 6.87 27.34 24.41 50.98 49.55 66.76 5.25 3.3 10.86 5.9 21.25 9.87l6.25 2.38v-51.64l-4.96-3.22c-14.46-9.37-25.08-28.62-26.62-48.23-1.61-20.67 9.68-43.92 27.2-55.97l4.38-3.02v-26.45c0-14.55-.11-26.44-.25-26.43-.13.01-3.28 1.09-6.99 2.4Z" fill="#FBE59C"/><path fill-rule="evenodd" clip-rule="evenodd" d="M-19.59 1079.86c-.262.4.136 8.03.885 16.96.748 8.93 1.498 19.85 1.664 24.27.274 7.26.11 8.1-1.705 8.79-1.103.41-15 2.97-30.88 5.69-15.88 2.72-29.216 5.14-29.633 5.37-1.104.61-.932 2.22.235 2.22.888 0 62.88 21.9 63.65 22.49.174.13-1.282 10.92-3.233 23.99-1.951 13.06-3.836 26.76-4.188 30.44l-.64 6.69 21.855-20.54 21.855-20.53 21.79 10.26c11.983 5.64 22.273 10.26 22.863 10.26 1.69 0 .493-2.7-11.952-26.95l-11.624-22.65 18.843-20.74c10.363-11.4 18.843-21.03 18.843-21.39 0-.37-4.445-.07-9.878.64-9.744 1.29-51.31 6.05-52.815 6.05-.427 0-3.021-3.1-5.766-6.89-2.745-3.8-8.533-11.21-12.862-16.49-16.051-19.56-16.168-19.68-17.307-17.94Z" fill="#FFB902"/><path opacity=".4" d="M-92 1953.78c0 1.02 6.336 2.22 14.214 2.91 7.706.68 17.296 1.54 21.064 2.05l7.192 1.03-5.994 16.44c-3.425 9.25-6.507 18.67-6.85 21.23-1.027 5.48-2.397 5.31 32.195 4.8l16.611-.17-7.534 19.86c-4.282 10.96-7.193 20.55-6.68 21.41.515.68 10.96 1.03 23.12.51 13.7-.68 22.262-.34 22.262.69 0 .85-3.083 6.68-6.85 13.01-3.768 6.17-7.021 13.02-7.364 15.24-.342 3.94-.342 3.94 22.091 3.94H47.74l-6.508 14.22c-9.59 20.2-9.418 20.2 12.844 19.52 10.104-.34 18.324-.17 18.324.51 0 .69-2.74 6.85-5.994 13.87-7.192 15.07-7.535 18.33-2.055 16.96 2.055-.52 6.508-1.2 9.761-1.71 3.254-.35 10.447-1.2 15.927-1.89 11.302-1.37 11.474-1.2 7.192 15.24-3.596 13.7-3.425 19.01.514 17.47 1.541-.51 7.878-2.05 14.043-3.42 6.165-1.37 12.501-2.92 14.042-3.43 3.083-1.2 3.254-1.88-2.911 17.64-1.541 5.14-2.398 9.59-1.884 10.1.514.52 7.021 1.03 14.556 1.2 13.358.17 13.529.17 10.789 3.6-1.712 1.88-4.795 4.96-7.021 7.02-2.226 2.05-3.254 4.11-2.226 4.62 1.712 1.2 17.467-14.55 17.467-17.46 0-1.2-5.651-1.89-15.584-1.89-8.391 0-15.07-.68-14.556-1.54.514-.68 2.055-5.65 3.425-10.62 1.37-5.13 3.083-11.13 3.768-13.35 1.198-3.77.856-3.94-4.624-3.09-3.254.52-8.905 1.72-12.673 2.91-3.767 1.03-8.905 2.4-11.473 2.92-4.624.85-4.795.68-3.768-4.8.514-3.25 1.713-8.56 2.569-11.82.856-3.25 1.541-8.56 1.541-11.64 0-4.8-.514-5.48-3.767-4.8-11.645 2.4-32.367 4.97-33.052 4.11-.685-.51.514-4.28 2.398-8.39 3.767-8.56 8.733-20.55 8.733-21.4 0-.35-8.39-.69-18.837-.69-10.96 0-18.838-.68-18.838-1.71 0-.86 1.884-5.82 4.282-10.96 2.397-5.14 4.281-10.45 4.281-11.99 0-1.37.856-3.08 1.713-3.59 1.027-.52 1.712-2.23 1.712-3.77 0-2.4-2.569-2.57-22.948-1.71l-22.947 1.02 8.391-14.9c4.624-8.22 8.392-16.26 8.392-17.98 0-3.42-3.597-3.42-38.874-.17l-8.905.69 2.397-4.63c1.37-2.74 2.569-5.82 2.569-7.02 0-1.2.685-3.42 1.541-5.14 4.966-9.76 10.618-24.83 9.59-25.68-.513-.52-11.645-.86-24.831-.69-13.186.17-23.975 0-23.975-.34s2.055-6.34 4.453-13.36c7.877-22.26 9.247-27.74 8.048-28.94-2.226-2.05-46.751-3.94-46.751-2.05Z" fill="#96C1C1"/><path d="M50.627 2880.62c-.718.8-1.063 1.61-1.667 3.82-.891 3.11-1.898 5.46-2.587 5.95-.49.38-3.134 1.32-4.198 1.53-.805.14-4.542 1.43-4.801 1.66-.202.15-.374.61-.374 1.04 0 .6.259.86 1.38 1.38 1.38.66 3.881 1.52 4.37 1.52.144 0 .977.32 1.811.72 1.524.75 2.502 1.98 2.502 3.25 0 .78 1.034 4.66 1.696 6.38.718 1.93 1.351 2.42 2.587 1.99.978-.35 1.869-1.9 2.329-4.17.546-2.62.604-2.85 1.035-3.68.23-.46.402-1.01.402-1.21 0-.58.978-.83 6.613-1.84 1.984-.35 4.456-1.44 5.06-2.24 1.093-1.41-.403-2.71-4.082-3.51-3.652-.81-5.492-1.38-6.038-1.93-.891-.89-1.782-3.59-2.559-7.79-.546-3.05-2.156-4.37-3.479-2.87Zm-26.26-123.94c-1.05 1.12-5.67 10.29-5.39 10.85.07.14-.14.49-.49.7-.28.21-1.26 1.68-2.03 3.22-7.7 14.49-7.77 14.49-10.36 13.93-1.19-.21-2.59-.77-3.15-1.26-.56-.42-1.12-.7-1.19-.63-.14.07-1.26-.28-2.52-.77-3.5-1.4-4.76-1.82-5.04-1.61-.07.07-.63-.21-1.19-.7-1.82-1.54-23.24-9.38-23.87-8.75-.35.35 0 1.26.7 2.1.7.77 1.89 2.31 2.66 3.36.7 1.05 2.1 2.87 3.08 4.06.98 1.19 3.5 4.48 5.6 7.21 2.1 2.8 4.06 5.11 4.34 5.11.28 0 .56.35.56.77 0 .49 1.05 2.1 2.31 3.71 1.33 1.61 3.5 4.41 4.9 6.23l2.59 3.43-3.85 4.97c-2.1 2.73-4.9 6.09-6.16 7.42-9.1 10.08-16.45 19.95-15.05 20.23.77.14 9.59-1.75 20.16-4.34.56-.14 1.82-.49 2.8-.7.98-.21 4.55-.98 7.91-1.82 3.36-.77 6.44-1.26 6.79-1.05.35.21 1.82 2.31 3.22 4.76 1.47 2.38 2.94 4.41 3.22 4.55.28.14.56.56.56.91 0 .84 7 12.6 8.54 14.21.7.77 1.26 1.82 1.26 2.31s.28.91.63.91c.56 0 1.61-4.55 1.89-8.4.07-.98.49-5.04.98-9.1.84-6.93 1.54-14.84 1.68-19.04.07-.98.28-1.68.56-1.54.28.21 1.05 0 1.75-.35.7-.42 5.53-2.03 10.71-3.57 17.36-5.32 23.1-7.35 23.1-8.05 0-.63-2.94-2.17-5.25-2.8-.35-.14-3.85-1.68-7.7-3.5s-10.01-4.69-13.65-6.37c-10.29-4.76-10.08-4.62-10.64-8.47-.28-1.82-.63-6.51-.84-10.36-.21-3.85-.42-7.49-.49-8.05 0-.56-.21-1.54-.35-2.1-.21-.56-.49-3.36-.63-6.23-.35-5.74-.98-7.07-2.66-5.39Z" fill="#F89DAF"/><path d="M1334.11 2745.62c.14.44 3.02.07 6.49-.73 3.39-.78 7.62-1.74 9.3-2.05l3.22-.56-.28 7.88c-.17 4.44-.18 8.9.03 10.05.32 2.49-.29 2.6 14.45-2.42l7.08-2.39-.46 9.56c-.31 5.29-.22 9.8.12 10.1.32.22 4.84-1.08 9.97-3 5.77-2.19 9.48-3.24 9.63-2.8.12.37-.39 3.29-1.13 6.53-.75 3.17-1.19 6.55-1.03 7.55.4 1.74.4 1.74 10.01-1.38l9.53-3.1-.81 7c-1.29 9.99-1.22 9.96 8.22 6.58 4.27-1.56 7.82-2.63 7.91-2.33.1.29-.22 3.31-.63 6.77-.99 7.46-.68 8.9 1.47 7.55.81-.5 2.62-1.42 3.94-2.09 1.35-.6 4.31-1.96 6.56-3.02 4.65-2.16 4.75-2.11 5.2 5.53.37 6.37 1.18 8.62 2.65 7.41.59-.43 3.09-1.97 5.54-3.42 2.44-1.44 4.94-2.98 5.53-3.42 1.15-.94 1.13-1.26 1.21 7.96.05 2.42.31 4.44.6 4.59.29.15 3.15-.53 6.4-1.51 5.74-1.78 5.81-1.81 5.12.04-.48 1.05-1.37 2.8-2.03 3.99-.67 1.19-.82 2.21-.31 2.29.9.27 5.45-8.67 5.04-9.91-.16-.52-2.68-.03-6.93 1.36-3.59 1.16-6.55 1.8-6.45 1.36.13-.37.1-2.71-.01-5.03-.12-2.39-.23-5.19-.24-6.24-.01-1.78-.18-1.81-2.41-.68-1.32.67-3.57 1.97-5.02 3.01-1.47.96-3.48 2.26-4.51 2.84-1.86 1.01-1.95.96-2.28-1.53-.23-1.46-.46-3.9-.54-5.42-.09-1.51-.53-3.88-.96-5.2-.67-2.05-.98-2.28-2.28-1.53-4.65 2.65-13.17 6.63-13.58 6.36-.36-.13-.38-1.91-.14-3.93.42-4.19.88-10.02.76-10.39-.05-.14-3.69.88-8.16 2.33-4.69 1.52-8.16 2.32-8.3 1.88-.12-.36-.01-2.75.31-5.29.31-2.53.38-5.07.16-5.73-.19-.58-.06-1.44.23-1.78.37-.36.43-1.19.21-1.85-.33-1.02-1.45-.74-10.06 2.46l-9.68 3.63 1.52-7.55c.83-4.16 1.33-8.14 1.09-8.87-.48-1.47-2.02-.97-16.67 5.33l-3.71 1.53.38-2.31c.2-1.36.29-2.85.12-3.36-.16-.52-.18-1.57-.05-2.42.77-4.87 1.09-12.11.53-12.34-.29-.15-5.11 1.25-10.73 3.16-5.62 1.91-10.26 3.33-10.31 3.19-.05-.15 0-3 .05-6.34.27-10.64.1-13.17-.58-13.52-1.24-.57-20.56 4.81-20.3 5.62Z" fill="#FEBC11"/><path d="M1410.49 2870.6c-6.74.86-16.62 4.18-21.56 7.32-2 1.14-3.99 2.18-4.47 2.18-1.52 0-17.67 16.34-20.33 20.62-11.49 18.33-13.39 43.6-4.75 64.88 5.42 13.3 17.58 26.6 30.5 33.16 13.11 6.65 27.07 9.12 41.42 7.12 12.73-1.71 21.47-5.13 31.54-12.35 14.63-10.35 23.94-25.74 27.36-45.22 1.52-8.45 1.52-9.88.19-19.28-.86-5.51-2.38-11.88-3.42-13.97-1.05-2.18-1.9-4.37-1.9-4.84 0-.57-1.71-3.71-3.9-7.13-5.51-8.74-11.49-15.29-18.43-20.04-15.86-11.02-32.11-14.92-52.25-12.45Zm18.53 29.93c13.68 2.85 23.46 9.97 29.07 21.09 2.56 5.03 2.75 6.08 2.75 16.34 0 10.54-.19 11.3-3.13 17.38-10.45 21.28-35.91 28.03-56.43 14.92-10.36-6.65-16.25-18.15-16.34-31.73-.1-12.16 3.8-20.24 13.96-29.55 4.94-4.56 9.79-6.74 19.19-8.83 2.09-.48 3.9-.86 3.99-.95.1-.1 3.23.57 6.94 1.33Z" fill="#FBE59C"/></g><defs><filter id="b" x="627" y="2396" width="1439" height="1438" filterUnits="userSpaceOnUse" color-interpolation-filters="sRGB"><feFlood flood-opacity="0" result="BackgroundImageFix"/><feBlend in="SourceGraphic" in2="BackgroundImageFix" result="shape"/><feGaussianBlur stdDeviation="204" result="effect1_foregroundBlur_4121_2372"/></filter><filter id="c" x="-552" y="2579" width="1256" height="1242" filterUnits="userSpaceOnUse" color-interpolation-filters="sRGB"><feFlood flood-opacity="0" result="BackgroundImageFix"/><feBlend in="SourceGraphic" in2="BackgroundImageFix" result="shape"/><feGaussianBlur stdDeviation="200" result="effect1_foregroundBlur_4121_2372"/></filter><filter id="d" x="-763" y="908" width="1376" height="1349" filterUnits="userSpaceOnUse" color-interpolation-filters="sRGB"><feFlood flood-opacity="0" result="BackgroundImageFix"/><feBlend in="SourceGraphic" in2="BackgroundImageFix" result="shape"/><feGaussianBlur stdDeviation="200" result="effect1_foregroundBlur_4121_2372"/></filter><filter id="e" x="-670" y="1877" width="1110" height="1110" filterUnits="userSpaceOnUse" color-interpolation-filters="sRGB"><feFlood flood-opacity="0" result="BackgroundImageFix"/><feBlend in="SourceGraphic" in2="BackgroundImageFix" result="shape"/><feGaussianBlur stdDeviation="200" result="effect1_foregroundBlur_4121_2372"/></filter><filter id="f" x="752" y="1357" width="1376" height="1349" filterUnits="userSpaceOnUse" color-interpolation-filters="sRGB"><feFlood flood-opacity="0" result="BackgroundImageFix"/><feBlend in="SourceGraphic" in2="BackgroundImageFix" result="shape"/><feGaussianBlur stdDeviation="200" result="effect1_foregroundBlur_4121_2372"/></filter><filter id="g" x="-587" y="-234" width="1110" height="1110" filterUnits="userSpaceOnUse" color-interpolation-filters="sRGB"><feFlood flood-opacity="0" result="BackgroundImageFix"/><feBlend in="SourceGraphic" in2="BackgroundImageFix" result="shape"/><feGaussianBlur stdDeviation="200" result="effect1_foregroundBlur_4121_2372"/></filter><filter id="h" x="848" y="3329" width="1264" height="1242" filterUnits="userSpaceOnUse" color-interpolation-filters="sRGB"><feFlood flood-opacity="0" result="BackgroundImageFix"/><feBlend in="SourceGraphic" in2="BackgroundImageFix" result="shape"/><feGaussianBlur stdDeviation="200" result="effect1_foregroundBlur_4121_2372"/></filter><filter id="i" x="706" y="34" width="1308" height="1308" filterUnits="userSpaceOnUse" color-interpolation-filters="sRGB"><feFlood flood-opacity="0" result="BackgroundImageFix"/><feBlend in="SourceGraphic" in2="BackgroundImageFix" result="shape"/><feGaussianBlur stdDeviation="200" result="effect1_foregroundBlur_4121_2372"/></filter><clipPath id="a"><path fill="#fff" d="M0 0h1440v4392H0z"/></clipPath></defs></svg>
