<svg width="24" height="24" viewBox="0 0 24 24" fill="none" xmlns="http://www.w3.org/2000/svg">
<path fill-rule="evenodd" clip-rule="evenodd" d="M7.5 3H16.504C18.987 3 21 5.013 21 7.496V16.505C21 18.987 18.987 21 16.504 21H7.496C5.013 21 3 18.987 3 16.504V7.5C3 5.015 5.015 3 7.5 3V3Z" stroke="white" stroke-width="1.5" stroke-linecap="round" stroke-linejoin="round"/>
<path d="M8.11914 11.1V16.5" stroke="white" stroke-width="1.5" stroke-linecap="round" stroke-linejoin="round"/>
<path d="M11.7188 16.5001V13.3501C11.7188 12.1071 12.7257 11.1001 13.9688 11.1001V11.1001C15.2118 11.1001 16.2188 12.1071 16.2188 13.3501V16.5001" stroke="white" stroke-width="1.5" stroke-linecap="round" stroke-linejoin="round"/>
<path d="M8.11814 7.838C7.99414 7.838 7.89314 7.939 7.89414 8.063C7.89414 8.187 7.99514 8.288 8.11914 8.288C8.24314 8.288 8.34414 8.187 8.34414 8.063C8.34414 7.938 8.24314 7.838 8.11814 7.838" stroke="white" stroke-width="1.5" stroke-linecap="round" stroke-linejoin="round"/>
</svg>
