<svg width="80" height="81" viewBox="0 0 80 81" fill="none" xmlns="http://www.w3.org/2000/svg">
<path d="M61.6667 30.5H18.3333C16.4924 30.5 15 31.9924 15 33.8333V67.1667C15 69.0076 16.4924 70.5 18.3333 70.5H61.6667C63.5076 70.5 65 69.0076 65 67.1667V33.8333C65 31.9924 63.5076 30.5 61.6667 30.5Z" stroke="#1A181B" stroke-width="2"/>
<path d="M30.5 47.5C31.8807 47.5 33 46.3807 33 45C33 43.6193 31.8807 42.5 30.5 42.5C29.1193 42.5 28 43.6193 28 45C28 46.3807 29.1193 47.5 30.5 47.5Z" fill="#1A181B"/>
<path d="M49.5 47.5C50.8807 47.5 52 46.3807 52 45C52 43.6193 50.8807 42.5 49.5 42.5C48.1193 42.5 47 43.6193 47 45C47 46.3807 48.1193 47.5 49.5 47.5Z" fill="#1A181B"/>
<path d="M40.0013 17.1665V30.4998M6.66797 43.8332V57.1665M73.3346 43.8332V57.1665M46.501 58.4999H34.001" stroke="#1A181B" stroke-width="2" stroke-linecap="round" stroke-linejoin="round"/>
<path d="M40.0013 17.1667C41.8423 17.1667 43.3346 15.6743 43.3346 13.8333C43.3346 11.9924 41.8423 10.5 40.0013 10.5C38.1604 10.5 36.668 11.9924 36.668 13.8333C36.668 15.6743 38.1604 17.1667 40.0013 17.1667Z" stroke="#1A181B" stroke-width="2"/>
</svg>
