<svg width="174" height="29" viewBox="0 0 174 29" fill="none" xmlns="http://www.w3.org/2000/svg">
<path d="M9.2229 17.2317C6.79657 16.3157 4.70102 15.525 4.70102 13.7C4.70102 11.5899 6.68709 10.8376 8.54552 10.8376C11.7609 10.8376 13.4689 12.5567 13.4854 12.5742L13.6496 12.7429L15.0895 10.4081L15.0009 10.3127C14.9179 10.2228 12.9247 8.11255 8.62631 8.11255C5.20482 8.11255 1.52178 9.861 1.52178 13.7C1.52178 17.3301 4.9115 18.6287 7.90208 19.7741C10.3319 20.7048 12.4304 21.5085 12.4304 23.3183C12.4304 25.3497 10.479 26.2587 8.54552 26.2587C4.89145 26.2587 2.6633 23.9631 2.64075 23.9402L2.49395 23.7854L0.784668 25.9752L0.881856 26.0817C0.909227 26.1117 1.55998 26.8221 2.82898 27.5395C3.99568 28.1983 5.92832 28.9846 8.50512 28.9846C12.6221 28.9846 15.6104 26.6018 15.6104 23.3183C15.6104 19.6423 12.2171 18.3618 9.2229 17.2317Z" fill="#1A181B"/>
<path d="M29.7813 8.11255C23.6754 8.11255 18.8936 12.6537 18.8936 18.4516C18.8936 24.3576 23.6754 28.9845 29.7813 28.9845C35.887 28.9845 40.6697 24.3576 40.6697 18.4516C40.6697 12.6537 35.887 8.11255 29.7813 8.11255ZM37.4897 18.4516C37.4897 22.8296 34.1041 26.2589 29.7813 26.2589C25.4583 26.2589 22.0728 22.8296 22.0728 18.4516C22.0728 14.2039 25.4583 10.8774 29.7813 10.8774C34.1041 10.8774 37.4897 14.2039 37.4897 18.4516Z" fill="#1A181B"/>
<path d="M54.1389 0.727361C54.1188 0.723821 53.6323 0.647217 52.8629 0.647217C50.7054 0.647217 45.6869 1.37305 45.6869 8.09454V8.85322H42.9292V11.42H45.6869V28.5317H48.7829V11.42H53.9682V8.85322H48.7829V8.09454C48.7829 6.33023 49.349 3.36943 53.1446 3.36943C53.6799 3.36943 54.0699 3.44334 54.0742 3.44419L54.2902 3.48525V0.751716L54.1389 0.727361Z" fill="#1A181B"/>
<path d="M68.7509 26.0973L68.5268 26.1447C68.5232 26.1454 68.1673 26.2199 67.624 26.2199C65.9623 26.2199 63.1742 25.5578 63.1742 21.1226V11.4709H68.3409V8.85258H63.1742V3.10046H60.0583V8.85258H57.3105V11.4709H60.0173V21.4001C60.0173 28.0096 64.6285 28.9967 67.3774 28.9967C68.1234 28.9967 68.581 28.9179 68.5996 28.9144L68.7509 28.8879V26.0973Z" fill="#1A181B"/>
<path d="M75.0489 22.592C75.0489 22.592 77.3117 24.781 80.6655 24.781C82.1196 24.781 83.3719 24.1555 83.3719 22.9831C83.3719 20.0118 73.3518 20.4028 73.3518 13.993C73.3518 10.28 76.7864 8.13 81.2304 8.13C85.8769 8.13 88.1396 10.3971 88.1396 10.3971L86.2407 14.071C86.2407 14.071 84.3412 12.3512 81.19 12.3512C79.8569 12.3512 78.5641 12.8984 78.5641 14.149C78.5641 16.9633 88.5842 16.612 88.5842 23.0221C88.5842 26.3438 85.5944 29.0021 80.7057 29.0021C75.5742 29.0021 72.7056 26.0705 72.7056 26.0705L75.0489 22.592Z" fill="#1A181B"/>
<path d="M102.413 8.13C108.352 8.13 111.543 12.3121 111.543 17.5894C111.543 18.1749 111.422 19.5043 111.422 19.5043H97.2003C97.5238 22.983 100.312 24.7809 103.382 24.7809C106.695 24.7809 109.322 22.5919 109.322 22.5919L111.301 26.1487C111.301 26.1487 108.15 29.0021 103.019 29.0021C96.1899 29.0021 91.9478 24.2338 91.9478 18.566C91.9478 12.43 96.2714 8.13 102.413 8.13ZM106.372 16.1038C106.291 13.4066 104.554 11.9606 102.291 11.9606C99.6656 11.9606 97.8468 13.5237 97.3625 16.1038H106.372Z" fill="#1A181B"/>
<path d="M116.707 8.60055H121.636V12.0401C121.636 12.7825 121.555 13.4469 121.555 13.4469H121.636C122.566 10.5935 125.03 8.32642 128.181 8.32642C128.666 8.32642 129.111 8.40529 129.111 8.40529V13.2908C129.111 13.2908 128.586 13.2127 127.899 13.2127C125.717 13.2127 123.252 14.4243 122.283 17.3947C121.96 18.3722 121.839 19.4664 121.839 20.6392V28.5341H116.707V8.60055Z" fill="#1A181B"/>
<path d="M131.346 8.59692H136.76L141.043 20.9478C141.447 22.1203 141.73 23.4455 141.771 23.4455H141.851C141.892 23.4455 142.174 22.1203 142.578 20.9478L146.861 8.59692H152.275L144.882 28.5304H138.82L131.346 8.59692Z" fill="#1A181B"/>
<path d="M164.007 8.13C169.946 8.13 173.139 12.3121 173.139 17.5894C173.139 18.1749 173.017 19.5043 173.017 19.5043H158.795C159.118 22.983 161.906 24.7809 164.977 24.7809C168.29 24.7809 170.916 22.5919 170.916 22.5919L172.896 26.1487C172.896 26.1487 169.744 29.0021 164.613 29.0021C157.785 29.0021 153.542 24.2338 153.542 18.566C153.542 12.43 157.866 8.13 164.007 8.13ZM167.967 16.1038C167.886 13.4066 166.148 11.9606 163.886 11.9606C161.26 11.9606 159.441 13.5237 158.957 16.1038H167.967Z" fill="#1A181B"/>
</svg>
