<svg width="188" height="52" viewBox="0 0 188 52" fill="none" xmlns="http://www.w3.org/2000/svg">
<g clip-path="url(#clip0_2010_6900)">
<path d="M62.8326 36.0553H79.2463C82.728 36.0553 85.6018 33.489 85.6018 30.2812V29.2119C85.6018 26.111 82.8938 23.5447 79.4674 23.4378H79.3568H68.2485C67.309 23.4378 66.4801 22.7428 66.4801 21.8339V20.7646C66.4801 19.9092 67.2538 19.1607 68.2485 19.1607H84.3307V14.9905H68.2485C64.7668 14.9905 61.8931 17.5567 61.8931 20.7646V21.8339C61.8931 24.9882 64.7116 27.608 68.2485 27.608H79.2463C80.1858 27.608 81.0148 28.303 81.0148 29.2119V30.2812C81.0148 31.1366 80.2411 31.8851 79.2463 31.8851H62.8326V36.0553Z" fill="#1A181B"/>
<path d="M91.0181 36.0554H95.6051V15.0441H91.0181V36.0554Z" fill="#1A181B"/>
<path d="M155.347 36.0554H159.934V20.8182C159.934 17.6638 157.115 15.0441 153.578 15.0441H130.643V36.0554H135.23V19.2677H142.912V36.1089H147.499V19.2677H153.578C154.518 19.2677 155.347 19.9628 155.347 20.8716V36.0554Z" fill="#1A181B"/>
<path d="M187.068 20.8182C187.068 17.6638 184.194 15.0441 180.713 15.0441H166.123V19.2143H180.713C181.652 19.2143 182.481 19.9093 182.481 20.8182V23.4379H170.876C167.394 23.4379 164.52 26.0042 164.52 29.212V30.2813C164.52 33.4891 167.339 36.0554 170.876 36.0554H187.013L187.068 20.8182ZM182.426 31.8852H170.82C169.881 31.8852 169.052 31.1902 169.052 30.2813V29.212C169.052 28.3566 169.825 27.6081 170.82 27.6081H182.426V31.8852Z" fill="#1A181B"/>
<path d="M101.85 30.3348C101.85 33.4891 104.669 36.1089 108.206 36.1089H124.398V23.4914H112.295V27.6616H119.756V31.8852H108.206C107.266 31.8852 106.437 31.1902 106.437 30.2813V20.8182C106.437 19.9627 107.211 19.2143 108.206 19.2143H124.343V15.0441H108.206C104.724 15.0441 101.85 17.6103 101.85 20.8182V30.3348Z" fill="#1A181B"/>
<path d="M26.7447 0.875977C23.1524 0.875977 20.0576 8.09361 19.0076 17.9844C8.78354 19.0003 1.32275 21.9408 1.32275 25.4694C1.32275 28.9446 8.78354 31.9385 19.0076 32.9543C20.0576 42.8986 23.0972 50.0628 26.7447 50.0628C31.2211 50.0628 34.8134 39.0492 34.8134 25.4694C34.8134 11.8896 31.2211 0.875977 26.7447 0.875977Z" fill="url(#paint0_linear_2010_6900)"/>
<path d="M34.4263 17.9845L19.0073 32.9009C21.439 33.1148 24.0364 33.2752 26.7444 33.2752C40.7818 33.2752 52.1664 29.7466 52.1664 25.4695C52.1664 21.9408 44.7056 19.0003 34.4263 17.9845Z" fill="url(#paint1_linear_2010_6900)"/>
<path d="M34.4263 17.9845L19.0073 32.9009C21.439 33.1148 24.0364 33.2752 26.7444 33.2752C29.4524 33.2752 32.0499 33.1683 34.4815 32.9009C34.7026 30.5485 34.8684 28.0357 34.8684 25.416C34.8684 22.7963 34.7026 20.3369 34.4263 17.9845Z" fill="#660C00"/>
<path d="M19.0071 32.9009L34.426 17.9845C31.9943 17.7706 29.3969 17.6102 26.6889 17.6102C23.9809 17.6102 21.3835 17.7172 18.9518 17.9845C18.7307 20.3369 18.5649 22.8497 18.5649 25.4694C18.5649 28.0892 18.786 30.5485 19.0071 32.9009Z" fill="#A21008"/>
<path d="M77.8608 50.2767V49.4213H77.9714C78.3582 49.5282 79.353 49.742 80.0162 49.742H80.3478C81.3426 49.742 82.061 49.3678 82.061 48.4055C82.061 47.55 81.6189 47.2827 80.8452 47.1223L79.7399 46.855C78.9661 46.6411 77.9714 46.16 77.9714 44.7699C77.9714 43.4868 78.9661 42.6313 80.5688 42.6313H80.7899C81.3978 42.6313 82.3373 42.7917 82.6689 42.9521V43.7541H82.5584C82.1715 43.6472 81.3426 43.4868 80.7899 43.4868H80.5688C79.5741 43.4868 78.9661 43.861 78.9661 44.7699C78.9661 45.5719 79.5188 45.7857 80.182 45.9996L81.232 46.2669C82.061 46.4808 83.0558 46.9085 83.0558 48.4589C83.0558 49.7955 82.061 50.6509 80.3478 50.6509H80.0162C79.2977 50.5975 78.1924 50.3836 77.8608 50.2767Z" fill="#1A181B"/>
<path d="M84.5483 47.6035C84.5483 45.8926 85.3773 44.7164 87.1458 44.7164C88.9695 44.7164 89.7432 45.8926 89.7432 47.6035C89.7432 49.4747 88.9143 50.6509 87.1458 50.6509C85.2668 50.5975 84.5483 49.4747 84.5483 47.6035ZM88.7485 47.6035C88.7485 46.3203 88.3616 45.5719 87.0905 45.5719C85.8194 45.5719 85.4326 46.3738 85.4326 47.6035C85.4326 48.8866 85.8194 49.7955 87.0905 49.7955C88.3616 49.7955 88.7485 48.8332 88.7485 47.6035Z" fill="#1A181B"/>
<path d="M91.8427 45.6255H90.9585V44.8235H91.898V44.5562C91.898 43.3265 92.6717 42.6849 93.8323 42.6849H94.4954V43.4869H93.8323C93.0586 43.4869 92.8375 43.8077 92.8375 44.5562V44.8235H94.3849V45.6255H92.8375V50.5442H91.898V45.6255H91.8427Z" fill="#1A181B"/>
<path d="M98.1987 50.5439C96.9276 50.5439 96.1539 49.9558 96.1539 48.5658V45.6253H95.2144V44.8233H96.1539V43.5402H97.0934V44.8233H98.8066V45.6253H97.0934V48.4054C97.0934 49.4747 97.4249 49.6885 98.3644 49.6885H98.9724V50.4905H98.1987V50.5439Z" fill="#1A181B"/>
<path d="M100.244 46.2668V44.7698H101.183V46.2668C101.183 47.9242 101.736 49.2608 102.233 49.8489C102.731 49.2608 103.283 47.8707 103.283 46.2668V44.7698H104.223V46.2668C104.223 47.9242 104.775 49.2608 105.273 49.8489C105.77 49.2608 106.323 47.8707 106.323 46.2668V44.7698H107.262V46.2668C107.262 48.2449 106.433 49.9558 105.825 50.4904H104.775C104.499 50.1696 103.836 49.1538 103.725 48.5123C103.615 49.1538 102.952 50.1696 102.675 50.4904H101.681C101.073 49.9558 100.244 48.2449 100.244 46.2668Z" fill="#1A181B"/>
<path d="M108.81 48.6726V47.7638C108.81 45.946 110.302 44.8232 111.96 44.8232H113.563V50.5439H112.623V49.4746L112.181 49.9023C111.739 50.33 111.242 50.6508 110.468 50.6508C109.529 50.5974 108.81 50.0627 108.81 48.6726ZM112.568 48.5657V45.6252H111.905C110.634 45.6252 109.694 46.4272 109.694 47.7638V48.6726C109.694 49.5815 110.136 49.8489 110.634 49.8489C111.242 49.8489 111.905 49.2608 112.236 48.94L112.568 48.5657Z" fill="#1A181B"/>
<path d="M115.884 44.8232H116.824V46.1064L116.934 45.9995C117.376 45.3579 117.874 44.8767 118.648 44.8767H119.034V45.7856H118.592C118.15 45.7856 117.763 45.946 117.487 46.2133L116.824 46.8549V50.5439H115.884V44.8232Z" fill="#1A181B"/>
<path d="M120.139 48.2984V47.1756C120.139 45.6252 121.244 44.7163 122.681 44.7163C123.842 44.7163 124.726 45.1975 124.726 46.3737C124.726 47.3895 124.063 48.0311 122.902 48.0311H121.134V48.3519C121.134 49.4211 121.797 49.8488 122.737 49.8488C123.4 49.8488 124.063 49.5815 124.339 49.4746H124.45V50.2766C124.173 50.3835 123.455 50.6508 122.737 50.6508C121.244 50.5973 120.139 49.9558 120.139 48.2984ZM121.079 47.2826H122.571C123.51 47.2826 123.787 46.9618 123.787 46.3737C123.787 45.7321 123.345 45.5717 122.681 45.5717C121.687 45.5717 121.079 46.0529 121.079 47.2291V47.2826Z" fill="#1A181B"/>
</g>
<defs>
<linearGradient id="paint0_linear_2010_6900" x1="29.0451" y1="40.3773" x2="15.3039" y2="11.824" gradientUnits="userSpaceOnUse">
<stop offset="0.00613497" stop-color="#DA0E16"/>
<stop offset="0.681" stop-color="#E31913"/>
</linearGradient>
<linearGradient id="paint1_linear_2010_6900" x1="30.4527" y1="20.2304" x2="38.6973" y2="34.9913" gradientUnits="userSpaceOnUse">
<stop stop-color="#595959"/>
<stop offset="0.2081" stop-color="#424242"/>
<stop offset="0.5305" stop-color="#232323"/>
<stop offset="0.8059" stop-color="#111111"/>
<stop offset="1" stop-color="#0A0A0A"/>
</linearGradient>
<clipPath id="clip0_2010_6900">
<rect width="186.796" height="50.2561" fill="white" transform="translate(0.319824 0.875977)"/>
</clipPath>
</defs>
</svg>
