<svg width="177" height="50" viewBox="0 0 177 50" fill="none" xmlns="http://www.w3.org/2000/svg">
<path d="M63.8159 24.3056V24.2474C63.8159 19.5908 67.2995 15.749 72.0712 15.749C74.8229 15.749 76.5208 16.6804 78.1309 18.0482C78.248 18.1647 78.3651 18.3393 78.3651 18.543C78.3651 18.8632 78.0723 19.1542 77.7211 19.1542C77.5454 19.1542 77.399 19.096 77.2819 18.9796C75.9061 17.7281 74.3253 16.855 72.0126 16.855C68.0314 16.855 65.0454 20.0855 65.0454 24.2183V24.2765C65.0454 28.4384 68.0899 31.669 72.0419 31.669C74.296 31.669 75.8768 30.8832 77.4283 29.3988C77.5161 29.3115 77.6625 29.2242 77.8674 29.2242C78.1602 29.2242 78.4529 29.5153 78.4529 29.8063C78.4529 29.9809 78.3651 30.1264 78.2773 30.2429C76.6086 31.7854 74.7937 32.804 72.0126 32.804C67.2995 32.7458 63.8159 29.0205 63.8159 24.3056Z" fill="#1A181B"/>
<path d="M86.3862 16.5639C86.3862 16.2438 86.679 15.9528 87.001 15.9528C87.323 15.9528 87.6158 16.2438 87.6158 16.5639V31.96C87.6158 32.2801 87.323 32.5712 87.001 32.5712C86.679 32.5712 86.3862 32.2801 86.3862 31.96V16.5639Z" fill="#1A181B"/>
<path d="M96.9536 16.5639C96.9536 16.2438 97.2464 15.9528 97.5684 15.9528C97.8904 15.9528 98.1831 16.2438 98.1831 16.5639V26.8377L108.634 16.1274C108.722 16.0401 108.868 15.9528 109.073 15.9528C109.366 15.9528 109.688 16.2438 109.688 16.5639C109.688 16.7386 109.629 16.855 109.512 17.0005L103.16 23.287L109.893 31.4943C110.01 31.6399 110.068 31.7563 110.068 31.9309C110.068 32.251 109.776 32.5712 109.424 32.5712C109.219 32.5712 109.044 32.4548 108.956 32.3384L102.281 24.1601L98.1831 28.2929V31.96C98.1831 32.2801 97.8904 32.5712 97.5684 32.5712C97.2464 32.5712 96.9536 32.2801 96.9536 31.96V16.5639Z" fill="#1A181B"/>
<path d="M118.09 16.5639C118.09 16.2438 118.383 15.9528 118.705 15.9528C119.027 15.9528 119.32 16.2438 119.32 16.5639V31.3488H128.541C128.834 31.3488 129.097 31.6108 129.097 31.9018C129.097 32.1928 128.834 32.4548 128.541 32.4548H118.705C118.383 32.4548 118.09 32.1637 118.09 31.8436V16.5639Z" fill="#1A181B"/>
<path d="M134.805 25.6444V16.5639C134.805 16.2438 135.098 15.9528 135.42 15.9528C135.742 15.9528 136.035 16.2438 136.035 16.5639V25.528C136.035 29.3988 138.142 31.6399 141.626 31.6399C144.993 31.6399 147.13 29.6317 147.13 25.6444V16.5639C147.13 16.2438 147.422 15.9528 147.744 15.9528C148.066 15.9528 148.359 16.2438 148.359 16.5639V25.4989C148.359 30.2138 145.607 32.7167 141.567 32.7167C137.615 32.7458 134.805 30.2429 134.805 25.6444Z" fill="#1A181B"/>
<path d="M156.791 16.593C156.791 16.2729 157.083 15.9818 157.405 15.9818H157.522C157.786 15.9818 157.961 16.1273 158.137 16.3311L164.577 25.7608L171.018 16.3311C171.164 16.1273 171.369 15.9818 171.633 15.9818H171.75C172.072 15.9818 172.364 16.2729 172.364 16.593V31.9599C172.364 32.2801 172.072 32.5711 171.75 32.5711C171.428 32.5711 171.135 32.2801 171.135 31.9599V18.1937L165.075 26.9831C164.929 27.1869 164.782 27.2742 164.548 27.2742C164.343 27.2742 164.168 27.1869 164.021 26.9831L157.961 18.1937V31.989C157.961 32.3092 157.698 32.5711 157.376 32.5711C157.054 32.5711 156.791 32.3092 156.791 31.989V16.593Z" fill="#1A181B"/>
<path d="M25.4094 47.8217C38.0524 47.8217 48.3016 37.632 48.3016 25.0624C48.3016 12.4927 38.0524 2.30298 25.4094 2.30298C12.7663 2.30298 2.51709 12.4927 2.51709 25.0624C2.51709 37.632 12.7663 47.8217 25.4094 47.8217Z" fill="#CBCBCB"/>
<path d="M24.8527 47.2688C37.4958 47.2688 47.745 37.0791 47.745 24.5094C47.745 11.9397 37.4958 1.75 24.8527 1.75C12.2097 1.75 1.96045 11.9397 1.96045 24.5094C1.96045 37.0791 12.2097 47.2688 24.8527 47.2688Z" fill="url(#paint0_linear_2010_6931)"/>
<path d="M25.5844 34.7831C19.9345 35.1615 15.0164 30.9123 14.6359 25.3243C14.2846 20.493 17.4169 16.2147 21.8666 14.8468L20.6078 10.7432C14.2553 12.664 9.83494 18.7759 10.3326 25.6444C10.8888 33.619 17.8853 39.6726 25.9064 39.1196C27.0188 39.0323 28.1312 38.8286 29.1558 38.5085L27.897 34.4048C27.1359 34.5794 26.3748 34.7249 25.5844 34.7831Z" fill="#4BA8D5"/>
<path d="M10.3033 25.6154C9.95201 20.7841 17.3876 16.1856 21.8665 14.8468L20.6077 10.7432C14.226 12.6349 9.80564 18.7468 10.3033 25.6154Z" fill="url(#paint1_linear_2010_6931)"/>
<path d="M18.0325 31.349C21.7796 35.0743 27.8686 35.0743 31.6156 31.3781L29.3615 29.1371C26.844 31.5818 22.8041 31.5818 20.3159 29.1079C17.8276 26.6341 17.7983 22.5886 20.2866 20.1148L18.0325 17.8738C14.2854 21.57 14.2854 27.6236 18.0325 31.349Z" fill="url(#paint2_linear_2010_6931)"/>
<path d="M18.0322 31.3489C15.5439 28.8751 17.798 22.5886 20.2571 20.0856L18.003 17.8446C14.2852 21.5699 14.2852 27.6236 18.0322 31.3489Z" fill="url(#paint3_linear_2010_6931)"/>
<path d="M3.33643 24.5967C3.33643 30.0683 5.44415 35.5689 9.63034 39.7308C18.032 48.0837 31.7029 48.0837 40.1046 39.7308L35.6549 35.307C29.7123 41.2151 20.0519 41.2151 14.1093 35.307C11.1526 32.3675 9.65961 28.4675 9.65961 24.5967H3.33643Z" fill="#F57F20"/>
<path d="M14.08 13.8864C20.0226 8.0074 29.683 8.0074 35.6256 13.8864L40.0753 9.46261C31.5858 1.02243 18.2369 0.906016 9.60106 9.46261C5.41488 13.6536 3.33643 19.1252 3.33643 24.5967H9.63033C9.63033 20.7259 11.1233 16.855 14.08 13.8864Z" fill="#F15722"/>
<path d="M9.63037 9.46261C15.573 3.55449 29.6831 8.00741 35.6257 13.8864L40.0753 9.46261C31.5859 1.02243 18.2369 0.906015 9.63037 9.46261Z" fill="url(#paint4_linear_2010_6931)"/>
<path d="M66.7145 39.5853H64.8995V40.4293H66.5096V40.9241H64.8995V41.7681H66.7438V42.2629H64.3433V39.0614H66.7145V39.5853Z" fill="#1A181B"/>
<path d="M70.344 41.5061L69.3194 40.0218V42.2919H68.7632V39.0905H69.3779L70.344 40.6039L71.31 39.0905H71.9248V42.2919H71.3686V39.9927L70.344 41.5061Z" fill="#1A181B"/>
<path d="M75.3209 41.2442H74.6768V42.2629H74.1206V39.0614H75.3794C76.1405 39.0614 76.6089 39.4689 76.6089 40.1383C76.6089 40.8659 76.0234 41.2442 75.3209 41.2442ZM75.3501 39.5853H74.7061V40.7203H75.3501C75.7892 40.7203 76.0527 40.4875 76.0527 40.1383C76.0527 39.789 75.76 39.5853 75.3501 39.5853Z" fill="#1A181B"/>
<path d="M80.093 42.321C79.0976 42.321 78.4243 41.5643 78.4243 40.6621C78.4243 39.7599 79.1269 39.0032 80.1222 39.0032C81.1176 39.0032 81.7909 39.7599 81.7909 40.6621C81.7909 41.5934 81.0883 42.321 80.093 42.321ZM80.093 39.5562C79.4489 39.5562 79.0098 40.0509 79.0098 40.6912C79.0098 41.3024 79.4782 41.8263 80.093 41.8263C80.737 41.8263 81.1761 41.3315 81.1761 40.6912C81.1761 40.0509 80.737 39.5562 80.093 39.5562Z" fill="#1A181B"/>
<path d="M85.5964 39.0905H86.0648L86.8552 41.477L87.6164 39.1196H88.2018L87.0894 42.3501H86.5918L85.8014 40.0509L85.011 42.3501H84.5133L83.4009 39.1196H84.0156L84.7768 41.477L85.5964 39.0905Z" fill="#1A181B"/>
<path d="M92.5338 39.5853H90.7188V40.4293H92.3289V40.9241H90.7188V41.7681H92.5631V42.2629H90.1626V39.0614H92.5338V39.5853Z" fill="#1A181B"/>
<path d="M96.662 42.2919L95.8716 41.186H95.169V42.2919H94.6128V39.0905H96.0472C96.7791 39.0905 97.2475 39.4688 97.2475 40.1091C97.2475 40.633 96.9254 40.9531 96.4863 41.0695L97.3646 42.2919H96.662ZM95.9887 39.5852H95.169V40.6621H95.9887C96.3985 40.6621 96.662 40.4583 96.662 40.1382C96.662 39.789 96.3985 39.5852 95.9887 39.5852Z" fill="#1A181B"/>
<path d="M99.8819 39.0905V42.2919H99.3257V39.0905H99.8819Z" fill="#1A181B"/>
<path d="M104.361 39.0905H104.917V42.2919H104.449L102.692 40.0218V42.2919H102.136V39.0905H102.663L104.39 41.3024V39.0905H104.361Z" fill="#1A181B"/>
<path d="M108.635 42.321C107.64 42.321 106.966 41.6225 106.966 40.6621C106.966 39.7599 107.669 39.0032 108.635 39.0032C109.191 39.0032 109.542 39.1487 109.864 39.4397L109.513 39.8763C109.279 39.6726 109.015 39.527 108.606 39.527C108.02 39.527 107.552 40.0509 107.552 40.6621C107.552 41.3315 107.991 41.7972 108.635 41.7972C108.928 41.7972 109.22 41.7099 109.396 41.5643V40.9532H108.576V40.4584H109.952V41.7972C109.66 42.1173 109.22 42.321 108.635 42.321Z" fill="#1A181B"/>
<path d="M116.334 42.321C115.397 42.321 114.695 41.5934 114.695 40.6621C114.695 39.7599 115.368 39.0032 116.363 39.0032C116.949 39.0032 117.3 39.2069 117.622 39.4979L117.271 39.9054C117.007 39.6726 116.744 39.4979 116.363 39.4979C115.749 39.4979 115.31 39.9927 115.31 40.633C115.31 41.2733 115.749 41.7681 116.363 41.7681C116.744 41.7681 117.007 41.6225 117.3 41.3606L117.652 41.739C117.3 42.1173 116.949 42.321 116.334 42.321Z" fill="#1A181B"/>
<path d="M121.047 42.321C120.052 42.321 119.378 41.5643 119.378 40.6621C119.378 39.7599 120.081 39.0032 121.076 39.0032C122.072 39.0032 122.745 39.7599 122.745 40.6621C122.745 41.5934 122.042 42.321 121.047 42.321ZM121.047 39.5562C120.403 39.5562 119.964 40.0509 119.964 40.6912C119.964 41.3024 120.432 41.8263 121.047 41.8263C121.691 41.8263 122.13 41.3315 122.13 40.6912C122.13 40.0509 121.691 39.5562 121.047 39.5562Z" fill="#1A181B"/>
<path d="M124.794 39.0905H125.351V41.768H127.049V42.2919H124.794V39.0905Z" fill="#1A181B"/>
<path d="M129.009 39.0905H129.565V41.768H131.263V42.2919H129.009V39.0905Z" fill="#1A181B"/>
<path d="M136.299 42.292H135.713L135.391 41.5352H133.869L133.547 42.292H132.961L134.367 39.0614H134.894L136.299 42.292ZM134.601 39.7308L134.045 41.0114H135.157L134.601 39.7308Z" fill="#1A181B"/>
<path d="M140.719 39.9054C140.719 40.2837 140.485 40.4875 140.251 40.633C140.631 40.7494 140.895 40.9822 140.895 41.4188C140.895 42.0009 140.426 42.2919 139.695 42.2919H138.202V39.0905H139.636C140.309 39.0905 140.719 39.4106 140.719 39.9054ZM140.134 39.9927C140.134 39.7307 139.929 39.5852 139.578 39.5852H138.758V40.4292H139.519C139.9 40.4292 140.134 40.2837 140.134 39.9927ZM140.339 41.3315C140.339 41.0695 140.134 40.8949 139.665 40.8949H138.758V41.768H139.695C140.104 41.7971 140.339 41.6225 140.339 41.3315Z" fill="#1A181B"/>
<path d="M144.437 42.321C143.441 42.321 142.768 41.5643 142.768 40.6621C142.768 39.7599 143.471 39.0032 144.466 39.0032C145.461 39.0032 146.135 39.7599 146.135 40.6621C146.105 41.5934 145.432 42.321 144.437 42.321ZM144.437 39.5562C143.793 39.5562 143.354 40.0509 143.354 40.6912C143.354 41.3024 143.822 41.8263 144.437 41.8263C145.081 41.8263 145.52 41.3315 145.52 40.6912C145.52 40.0509 145.081 39.5562 144.437 39.5562Z" fill="#1A181B"/>
<path d="M150.233 42.2919L149.443 41.186H148.74V42.2919H148.184V39.0905H149.619C150.35 39.0905 150.819 39.4688 150.819 40.1091C150.819 40.633 150.497 40.9531 150.058 41.0695L150.936 42.2919H150.233ZM149.56 39.5852H148.74V40.6621H149.56C149.97 40.6621 150.233 40.4583 150.233 40.1382C150.233 39.789 149.97 39.5852 149.56 39.5852Z" fill="#1A181B"/>
<path d="M155.941 42.292H155.356L155.034 41.5352H153.512L153.19 42.292H152.604L154.009 39.0614H154.536L155.941 42.292ZM154.243 39.7308L153.687 41.0114H154.8L154.243 39.7308Z" fill="#1A181B"/>
<path d="M158.811 42.2919H158.255V39.6143H157.23V39.0905H159.835V39.6143H158.811V42.2919Z" fill="#1A181B"/>
<path d="M162.382 39.0905V42.2919H161.826V39.0905H162.382Z" fill="#1A181B"/>
<path d="M166.158 42.321C165.163 42.321 164.49 41.5643 164.49 40.6621C164.49 39.7599 165.192 39.0032 166.188 39.0032C167.183 39.0032 167.856 39.7599 167.856 40.6621C167.856 41.5934 167.154 42.321 166.158 42.321ZM166.158 39.5562C165.514 39.5562 165.075 40.0509 165.075 40.6912C165.075 41.3024 165.544 41.8263 166.158 41.8263C166.802 41.8263 167.242 41.3315 167.242 40.6912C167.242 40.0509 166.802 39.5562 166.158 39.5562Z" fill="#1A181B"/>
<path d="M172.131 39.0905H172.687V42.2919H172.218L170.462 40.0218V42.2919H169.906V39.0905H170.433L172.16 41.3024V39.0905H172.131Z" fill="#1A181B"/>
<defs>
<linearGradient id="paint0_linear_2010_6931" x1="1.95767" y1="24.5215" x2="47.7283" y2="24.5215" gradientUnits="userSpaceOnUse">
<stop stop-color="#F3F3F3"/>
<stop offset="1" stop-color="#E4E4E4"/>
</linearGradient>
<linearGradient id="paint1_linear_2010_6931" x1="13.0676" y1="15.8035" x2="16.9486" y2="19.7071" gradientUnits="userSpaceOnUse">
<stop stop-color="#4BA8D5"/>
<stop offset="1" stop-color="#033840"/>
</linearGradient>
<linearGradient id="paint2_linear_2010_6931" x1="15.2189" y1="25.9935" x2="31.6217" y2="25.9935" gradientUnits="userSpaceOnUse">
<stop stop-color="#6A587C"/>
<stop offset="1" stop-color="#302736"/>
</linearGradient>
<linearGradient id="paint3_linear_2010_6931" x1="14.9925" y1="23.4985" x2="20.2083" y2="25.408" gradientUnits="userSpaceOnUse">
<stop stop-color="#6A587C"/>
<stop offset="0.1736" stop-color="#5B4B69"/>
<stop offset="0.4223" stop-color="#483B52"/>
<stop offset="0.6513" stop-color="#3B3043"/>
<stop offset="0.8512" stop-color="#33293A"/>
<stop offset="1" stop-color="#302736"/>
</linearGradient>
<linearGradient id="paint4_linear_2010_6931" x1="27.3521" y1="2.64792" x2="23.1182" y2="14.3485" gradientUnits="userSpaceOnUse">
<stop stop-color="#F15722"/>
<stop offset="1" stop-color="#8E3C1E"/>
</linearGradient>
</defs>
</svg>
