<svg width="207" height="83" viewBox="0 0 207 83" fill="none" xmlns="http://www.w3.org/2000/svg">
<path d="M0.86084 58.2406C1.84492 53.2121 2.82901 48.242 3.75521 43.2135C4.79718 37.6003 5.78126 31.9286 6.70746 26.3153C7.22844 23.2748 9.48605 24.3273 11.2227 24.2688C12.9593 24.2104 14.117 25.2044 13.7697 26.9585C11.9173 38.4773 9.83337 50.0546 7.69154 62.4505C5.1445 61.515 3.00267 60.7548 0.86084 59.9947C0.86084 59.41 0.86084 58.8253 0.86084 58.2406Z" fill="#1F3967"/>
<path d="M31.3094 61.3392C30.8463 61.5146 30.6727 61.6315 30.499 61.6315C22.5105 61.7485 22.2211 62.5671 22.3948 54.0888C22.5105 49.1187 22.3948 44.1487 22.3948 39.2371C22.1632 39.1786 21.9317 39.1786 21.7001 39.1201C20.9476 43.0962 20.1372 47.0722 19.4425 51.0483C18.9794 53.621 18.5163 56.1937 18.169 58.8249C17.8796 61.0468 17.0113 62.0993 14.58 61.7485C12.2645 61.3977 11.4541 60.2867 11.8593 58.0063C13.1907 50.522 14.4063 43.0962 15.6798 35.6119C16.3166 31.9282 17.0691 28.186 17.7638 24.4439C20.6003 24.4439 23.1473 24.3854 25.7522 24.4439C27.5467 24.5023 27.8941 25.6718 27.8941 27.2505C27.8362 31.6943 27.8941 36.1381 28.3572 40.7573C28.9939 37.366 29.6886 33.9747 30.3253 30.5249C30.499 29.4724 30.9042 28.4199 30.8463 27.3674C30.7305 24.1515 32.6987 23.9761 35.0142 24.3854C37.6191 24.7947 37.3297 26.7242 36.9824 28.6538C35.13 39.4125 33.2197 50.3466 31.3094 61.3392Z" fill="#1F3967"/>
<path d="M121.324 62.3333C120.977 62.2748 119.704 62.1578 118.546 61.807C115.999 61.1054 114.494 59.4682 114.957 56.72C115.941 50.1128 116.983 43.5055 118.083 36.8983C118.488 34.6179 119.24 32.396 119.472 30.0571C120.225 22.9821 131.455 21.8711 134.986 24.9116C136.086 25.8472 136.896 28.0106 136.665 29.4724C135.275 38.477 133.654 47.4231 131.86 56.3692C131.05 60.4037 127.576 62.3333 121.324 62.3333ZM122.135 54.9074C122.424 55.4921 122.772 56.2522 123.061 56.9539C123.698 56.3692 124.335 55.7845 124.971 55.1413C125.145 54.9659 125.145 54.615 125.203 54.3227C126.534 46.663 127.924 39.0032 129.197 31.3435C129.313 30.5249 128.792 29.6478 128.56 28.7707C127.866 29.4724 126.708 30.0571 126.534 30.8172C125.029 38.7693 123.64 46.663 122.135 54.9074Z" fill="#1F3967"/>
<path d="M88.1551 41.1083C91.7441 41.7515 92.0914 43.9734 91.7441 46.4877C91.1074 51.3993 90.4706 56.3109 89.776 61.4563C87.692 61.4563 85.4923 61.4563 82.5979 61.4563C83.061 57.8311 83.4662 54.2059 83.9293 50.6392C84.103 49.2943 84.5661 47.9495 84.5082 46.6046C84.4503 45.6691 83.582 44.792 83.1189 43.8565C82.7716 43.9734 82.4822 44.0904 82.1348 44.1488C81.0929 49.9375 79.993 55.6677 78.8932 61.5148C78.2564 61.5733 77.7933 61.6317 77.3302 61.6317C72.4098 61.6317 71.8888 61.164 72.6992 56.2524C74.3779 46.0784 76.2303 35.9629 78.0248 25.8474C78.0827 25.3796 78.3143 24.9118 78.5458 24.3856C82.4243 24.3856 86.2448 24.1517 90.0654 24.444C93.1913 24.6779 94.6964 26.6075 94.5227 29.7649C94.3491 34.4426 94.1754 39.1788 88.1551 41.1083ZM84.8555 29.1217C84.3346 31.9868 83.7557 34.735 83.3505 37.4831C83.2347 38.1848 83.6399 39.0034 83.8136 39.7635C84.5661 39.1788 85.666 38.7695 85.9554 38.0678C86.5922 36.1968 86.7658 34.0918 87.2868 32.1622C87.7499 30.2327 87.1131 29.3556 84.8555 29.1217Z" fill="#1F3967"/>
<path d="M156.578 37.132C155.073 37.132 153.915 37.132 152.757 37.132C150.384 37.1905 149.457 35.9626 149.805 33.6238C149.921 32.9806 150.152 32.2789 150.094 31.6358C149.921 30.7002 149.515 29.8231 149.226 28.9461C148.589 29.7062 147.489 30.3494 147.316 31.168C146.042 37.7168 144.884 44.324 143.727 50.9312C143.495 52.393 143.206 53.7963 143.148 55.2581C143.148 55.8428 143.611 56.3691 143.842 56.9538C144.363 56.6614 145.347 56.486 145.405 56.0767C145.926 53.5624 146.447 50.9897 146.621 48.417C146.737 46.6044 146.389 44.7918 146.216 43.1546C147.026 42.8622 147.2 42.7453 147.374 42.7453C155.073 42.3944 155.362 42.7453 153.973 50.3465C153.857 50.9312 153.625 51.4575 153.567 52.0422C152.641 62.1577 147.026 62.6255 140.369 62.2747C137.127 62.0992 135.044 59.9943 135.565 56.7199C137.012 47.423 138.517 38.126 140.485 28.9461C141.295 25.087 145 23.8006 148.531 23.4498C150.384 23.2744 152.352 23.6837 154.204 24.093C156.288 24.6192 157.562 26.1979 157.388 28.3614C157.388 31.2264 156.925 34.0915 156.578 37.132Z" fill="#1F3967"/>
<path d="M139.327 82.1549C148.821 80.81 155.131 74.3197 161.904 68.648C165.898 65.3152 169.718 61.6899 173.944 58.6494C181.643 53.0362 190.21 49.3525 199.878 48.7093C195.247 47.6569 190.789 48.2416 186.332 49.7034C176.549 52.9777 168.445 59.0003 160.341 65.1398C155.42 68.8819 150.326 72.3902 145 75.4892C140.196 78.3542 132.67 78.4712 127.229 76.4247C128.56 76.6001 129.834 76.7755 131.165 76.9509C137.707 77.6526 143.611 76.0739 148.821 72.0978C154.841 67.5955 160.862 62.9763 166.766 58.3571C167.982 57.4216 168.734 55.9598 169.834 54.8488C174.812 49.7618 179.849 44.6748 184.827 39.6463C185.058 39.8802 185.29 40.1141 185.522 40.348C181.064 45.0257 176.549 49.6449 172.265 54.1472C177.302 52.1591 182.396 50.1127 187.606 48.1831C188.937 47.6569 190.384 47.3645 191.831 47.306C193.568 47.2476 194.841 46.7213 195.189 44.8502C195.594 42.7453 196.231 40.5818 193.799 39.1785C191.773 38.0091 189.805 36.8397 187.895 35.4948C185.116 33.5068 185.001 31.051 187.606 28.7122C188.59 27.7767 189.747 27.075 190.789 26.1979C193.857 23.5083 193.684 21.2279 190.21 19.006C189.342 18.4213 188.358 18.0704 187.027 17.3688C190.21 17.4272 192.179 18.889 193.278 21.1694C194.436 23.5083 193.163 25.4963 191.252 26.9581C190.963 27.1919 190.674 27.4843 190.326 27.7182C185.29 31.6357 185.29 32.8636 190.674 36.1965C190.731 36.255 190.847 36.3134 190.905 36.3719C197.273 40.2895 196.81 39.6463 195.941 46.7213C197.852 47.306 199.878 47.5984 201.556 48.5339C203.119 49.411 204.393 50.9312 206.361 52.6854C202.309 52.9193 199.183 52.9193 196.115 53.3286C188.416 54.381 182.569 59.0587 176.838 63.8534C172.034 67.8879 167.345 72.0978 162.367 75.9569C156.925 80.1669 151.021 83.3828 143.843 82.8565C142.338 82.7396 140.833 82.3888 139.327 82.1549Z" fill="#1F3967"/>
<path d="M114.899 37.1907C113.683 37.1907 112.873 37.1907 112.12 37.1907C108.3 37.1907 107.837 36.4891 108.3 32.7469C108.473 31.519 107.895 30.1742 107.605 28.8293C106.91 30.0572 105.869 31.1682 105.637 32.4545C105.058 35.2612 106.274 37.6585 108.3 39.4711C113.741 44.5581 113.336 50.6976 111.252 56.954C109.458 62.2749 99.6746 64.4383 95.6803 60.4623C94.812 59.5852 94.1753 58.0649 94.2331 56.837C94.3489 54.0304 94.812 51.2238 95.4488 48.4757C96.0855 45.9029 98.3431 47.1893 99.8482 47.2478C100.659 47.3062 101.99 48.5341 102.106 49.4112C102.337 50.9899 101.759 52.6856 101.701 54.3228C101.701 55.1998 102.164 56.0769 102.395 56.8955C103.09 56.2523 104.306 55.6091 104.363 54.9075C104.537 52.6271 104.595 50.2883 104.074 48.1248C103.727 46.6046 102.743 45.0259 101.585 43.9734C97.1854 39.9389 97.3012 35.3196 98.5168 29.8818C99.964 23.2746 110.268 21.5204 114.494 25.2041C115.362 25.9642 115.941 27.6014 115.883 28.7709C115.825 31.519 115.304 34.2087 114.899 37.1907Z" fill="#1F3967"/>
<path d="M68.7045 56.8956C68.473 58.5328 68.2993 60.0531 68.1257 61.6902C64.4788 61.6902 61.1213 61.6902 57.7638 61.6902C55.5062 61.6902 54.58 60.4039 54.9273 58.3574C56.7797 47.5402 58.69 36.723 60.7161 25.9643C60.8319 25.2627 62.0475 24.3271 62.7421 24.3271C65.6944 24.2102 68.7045 24.3271 71.7147 24.3856C73.5092 24.3856 74.3196 25.3796 74.3775 27.1338C74.4354 29.1802 73.104 29.0633 71.6568 29.1218C70.2096 29.2387 67.8362 29.2972 67.5468 30.0573C66.6206 32.2208 66.4469 34.735 66.2154 37.1323C66.1575 37.4832 67.2574 38.1848 67.8941 38.3018C69.1098 38.5356 70.3254 38.4772 71.8305 38.5356C71.6568 40.0559 71.541 41.3423 71.4253 42.6286C71.0779 42.804 70.8464 43.0379 70.5569 43.0379C64.884 43.6811 64.884 43.6226 63.7262 49.4113C63.7262 49.5282 63.6683 49.5867 63.6683 49.7036C62.279 55.9601 62.279 55.9601 68.7045 56.8956Z" fill="#1F3967"/>
<path d="M40.1662 28.7124C40.3977 24.1516 40.3977 24.1516 44.8551 24.1516C47.8652 24.1516 50.8175 24.1516 53.8276 24.2686C57.5324 24.3855 57.8218 24.7948 57.3008 28.7124C57.1272 28.7708 56.9535 28.9462 56.8377 28.9462C51.2806 29.1801 52.4383 28.3031 51.2806 34.0917C49.5439 43.1548 48.0389 52.2178 46.3601 61.5732C44.8551 61.5732 43.5237 61.6901 42.2501 61.5732C40.282 61.3393 39.4715 60.3453 39.8189 58.1818C41.2661 50.2298 42.5396 42.2777 43.9289 34.3256C44.7972 29.4725 44.7972 29.531 40.1662 28.7124Z" fill="#1F3967"/>
<path d="M198.72 11.8143C202.077 13.1591 201.556 25.2042 197.041 29.7065C201.325 23.8593 199.588 17.7199 198.72 11.8143Z" fill="#1F3967"/>
<path d="M174.291 11.9896C177.127 10.4693 180.543 8.65673 183.611 7.01953C181.237 10.1185 178.054 12.5743 174.291 11.9896Z" fill="#1F3967"/>
<path d="M179.675 2.34192C183.611 0.821666 187.605 -0.581648 191.252 2.92664C187.49 0.353895 183.611 1.69874 179.675 2.34192Z" fill="#1F3967"/>
<path d="M169.892 8.94893C172.497 8.07187 175.912 6.96092 178.922 5.96692C176.664 8.42269 173.481 9.35823 169.892 8.94893Z" fill="#1F3967"/>
</svg>
