<svg width="185" height="90" viewBox="0 0 185 90" fill="none" xmlns="http://www.w3.org/2000/svg">
<g clip-path="url(#clip0_2010_6851)">
<path d="M84.9197 19.2175H0.0527344V71.3505H84.9197V19.2175Z" fill="#5F7FBF"/>
<path d="M73.9883 18.6906L72.2989 8.08618L5.45215 18.5589L5.48527 18.6906H73.9883Z" fill="#779ED5"/>
<path d="M66.8662 8.18498L64.6468 0.807983L7.43945 17.7026L66.8662 8.18498Z" fill="#B47EB4"/>
<path d="M12.2432 72.0093L13.9326 82.5478L80.7794 72.1081L80.7462 72.0093H12.2432Z" fill="#779ED5"/>
<path d="M19.332 82.383L21.5514 89.76L78.825 72.8983L19.332 82.383Z" fill="#B47EB4"/>
<path d="M10.5205 32.7529H13.1043V43.8843H27.3813V32.7529H29.9981V58.6054H27.3813V45.9591H13.1043V58.6054H10.5205V32.7529Z" fill="white"/>
<path d="M43.149 47.2435L33.4102 32.7201H36.5902L44.474 44.7736L52.4241 32.7201H55.4053L45.7659 47.2435V58.6054H43.149V47.2435Z" fill="white"/>
<path d="M58.9824 50.0428C59.2806 54.6864 61.7318 56.9259 66.4356 56.9259C70.7088 56.9259 73.2594 54.9169 73.2594 51.5578C73.2594 50.0099 72.6632 48.8902 71.4706 48.1657C70.245 47.4411 68.7875 47.013 65.0775 46.2555C61.765 45.564 60.0756 44.9382 59.0156 43.9832C57.8562 42.9293 57.1274 41.2168 57.1274 39.3725C57.1274 34.9925 60.5393 32.2261 66.1044 32.2261C71.835 32.2261 74.8163 34.729 75.3463 39.8665H72.7294C72.6963 38.154 72.4313 37.3636 71.6031 36.4744C70.3775 35.1242 68.6219 34.4655 66.1044 34.4655C62.1625 34.4655 59.7112 36.3427 59.7112 39.3396C59.7112 41.9743 61.235 43.1269 66.0381 44.0161C70.0463 44.7406 71.6031 45.2346 73.0938 46.1238C74.8163 47.1777 75.8432 49.0878 75.8432 51.2614C75.8432 55.9379 72.0338 59.1324 66.4356 59.1324C62.6593 59.1324 59.6781 57.848 58.0549 55.5097C56.9618 53.9619 56.5312 52.4799 56.498 50.0428H58.9824Z" fill="white"/>
<path d="M95.5863 49.8782H103.868V51.4919H95.5863V56.7612H104.895V58.4737H93.665V43.3904H104.663V45.1029H95.5863V49.8782Z" fill="#404040"/>
<path d="M108.306 49.2524C109.201 48.001 110.426 47.3752 111.95 47.3752C114.136 47.3752 115.461 48.7584 115.461 51.0637V58.4737H113.673V51.6895C113.673 50.7015 113.573 50.1745 113.242 49.7464C112.811 49.1536 112.182 48.8243 111.288 48.8243C110.029 48.8243 108.936 49.5159 108.505 50.6027C108.306 51.0308 108.273 51.3931 108.273 52.2493V58.5066H106.484V47.6716H108.273L108.306 49.2524Z" fill="#404040"/>
<path d="M121.987 47.6717V49.0878H119.801V55.6744C119.801 56.8929 120.033 57.1893 120.894 57.1893C121.126 57.1893 121.291 57.1564 121.656 57.0576V58.5396C121.159 58.6384 120.894 58.7042 120.53 58.7042C119.602 58.7042 118.807 58.4078 118.476 57.9797C118.178 57.5845 118.045 57.1234 118.045 56.2013V49.0878H116.455V47.6717H118.045V44.1808H119.834V47.6717H121.987Z" fill="#404040"/>
<path d="M124.24 53.5008C124.439 55.9708 125.764 57.354 127.851 57.354C129.308 57.354 130.202 56.6624 130.666 55.2463H132.455C131.759 57.6175 130.169 58.7701 127.685 58.7701C124.472 58.7701 122.418 56.5636 122.418 53.1385C122.418 49.6806 124.439 47.3752 127.519 47.3752C129.639 47.3752 131.362 48.462 132.157 50.3722C132.488 51.1955 132.621 52.0847 132.687 53.5008H124.24ZM130.898 52.2164C130.699 50.1746 129.407 48.8572 127.586 48.8572C125.764 48.8572 124.505 50.1087 124.273 52.2164H130.898Z" fill="#404040"/>
<path d="M136.264 49.5159C137.357 47.968 138.318 47.3423 139.511 47.3423C139.776 47.3423 139.941 47.3752 140.372 47.4411V49.1207C139.941 49.0219 139.776 49.0219 139.511 49.0219C138.417 49.0219 137.258 49.7135 136.794 50.7015C136.43 51.4589 136.331 51.9529 136.331 53.402V58.4737H134.476V47.6716H136.264V49.5159Z" fill="#404040"/>
<path d="M141.432 62.0304V47.6716H143.22V49.1207C144.181 47.9022 145.274 47.3752 146.798 47.3752C149.547 47.3752 151.402 49.6476 151.402 53.1385C151.402 56.5306 149.58 58.7701 146.765 58.7701C145.274 58.7701 144.181 58.2102 143.22 56.9587V62.0304H141.432ZM143.85 50.1746C143.386 50.8661 143.154 51.7224 143.154 52.9409C143.154 54.4229 143.419 55.378 144.015 56.1684C144.612 56.9258 145.506 57.3869 146.467 57.3869C148.421 57.3869 149.58 55.7732 149.58 53.1056C149.58 50.4051 148.487 48.8572 146.5 48.8572C145.407 48.8243 144.479 49.3183 143.85 50.1746Z" fill="#404040"/>
<path d="M154.98 49.5159C156.073 47.968 157.034 47.3423 158.226 47.3423C158.491 47.3423 158.657 47.3752 159.088 47.4411V49.1207C158.657 49.0219 158.491 49.0219 158.226 49.0219C157.133 49.0219 155.974 49.7135 155.51 50.7015C155.146 51.4589 155.046 51.9529 155.046 53.402V58.4737H153.191V47.6716H154.98V49.5159Z" fill="#404040"/>
<path d="M161.903 45.531H160.114V43.3904H161.903V45.531ZM161.903 58.4737H160.114V47.6717H161.903V58.4737Z" fill="#404040"/>
<path d="M170.747 50.932C170.714 50.2075 170.582 49.9111 170.25 49.5489C169.82 49.0878 169.058 48.8573 168.164 48.8573C166.673 48.8573 165.712 49.4501 165.712 50.3393C165.712 50.7345 165.944 51.0967 166.309 51.3273C166.706 51.5907 167.269 51.7554 168.892 52.0847C171.807 52.7434 172.934 53.6655 172.934 55.411C172.934 57.5187 171.211 58.7701 168.396 58.7701C165.381 58.7701 163.626 57.354 163.427 54.7523H165.216C165.315 56.4648 166.375 57.3211 168.429 57.3211C170.085 57.3211 171.178 56.5966 171.178 55.5098C171.178 55.0487 170.979 54.6535 170.615 54.423C170.151 54.1266 169.919 54.0278 167.534 53.4679C166.209 53.1715 165.348 52.8092 164.851 52.447C164.288 52.0188 163.924 51.2943 163.924 50.5039C163.924 48.5938 165.646 47.4082 168.296 47.4082C170.847 47.4082 172.172 48.5279 172.536 50.932H170.747Z" fill="#404040"/>
<path d="M175.75 53.5008C175.948 55.9708 177.273 57.354 179.36 57.354C180.818 57.354 181.712 56.6624 182.176 55.2463H183.965C183.269 57.6175 181.679 58.7701 179.195 58.7701C175.981 58.7701 173.928 56.5636 173.928 53.1385C173.928 49.6806 175.948 47.3752 179.029 47.3752C181.149 47.3752 182.872 48.462 183.667 50.3722C183.998 51.1955 184.13 52.0847 184.197 53.5008H175.75ZM182.375 52.2164C182.176 50.1746 180.884 48.8572 179.062 48.8572C177.24 48.8572 175.982 50.1087 175.75 52.2164H182.375Z" fill="#404040"/>
<path d="M94.4267 63.9735H95.0561V66.5423C95.6523 65.9495 95.9836 65.7848 96.6792 65.7848C97.5073 65.7848 98.1036 66.1142 98.3023 66.7728C98.4017 67.0363 98.4017 67.2009 98.4017 67.8596V70.9882H97.7723V67.7608C97.7723 67.2339 97.7392 67.1022 97.6398 66.8716C97.4411 66.5094 97.0767 66.3447 96.5467 66.3447C95.8842 66.3447 95.3873 66.674 95.1554 67.2339C95.0561 67.4315 95.0229 67.8925 95.0229 68.2219V71.0212H94.3936L94.4267 63.9735Z" fill="#67676A"/>
<path d="M104.132 69.4074C103.967 69.8356 103.867 70.0661 103.668 70.2966C103.304 70.8236 102.642 71.12 101.913 71.12C100.521 71.12 99.6934 70.132 99.6934 68.5512C99.6934 66.9045 100.588 65.8177 101.979 65.8177C103.039 65.8177 103.768 66.4105 104 67.3985C104.066 67.662 104.099 67.8596 104.132 68.5512H100.323C100.356 69.8685 100.919 70.593 101.979 70.593C102.774 70.593 103.304 70.1649 103.503 69.4074H104.132ZM103.47 68.0243C103.403 66.9375 102.873 66.3447 101.979 66.3447C101.449 66.3447 100.952 66.6081 100.654 67.0033C100.455 67.2997 100.389 67.5303 100.29 68.0243H103.47Z" fill="#67676A"/>
<path d="M105.392 63.9735H106.021V70.9882H105.392V63.9735Z" fill="#67676A"/>
<path d="M107.577 72.7996V65.9495H108.207V66.674C108.67 66.0483 109.167 65.8177 109.863 65.8177C111.155 65.8177 112.049 66.9045 112.049 68.4195C112.049 69.1111 111.817 69.8356 111.486 70.3296C111.122 70.8236 110.492 71.12 109.763 71.12C109.068 71.12 108.604 70.8895 108.207 70.3625V72.7996H107.577ZM108.472 67.0033C108.24 67.3327 108.14 67.7608 108.14 68.4195C108.14 69.0781 108.24 69.5721 108.472 69.9344C108.737 70.3625 109.2 70.5931 109.73 70.5931C110.757 70.5931 111.387 69.7697 111.387 68.4853C111.387 67.1351 110.79 66.3447 109.763 66.3447C109.267 66.3117 108.803 66.5752 108.472 67.0033Z" fill="#67676A"/>
<path d="M113.341 63.9735H113.97V64.8298H113.341V63.9735ZM113.341 65.9495H113.97V70.9882H113.341V65.9495Z" fill="#67676A"/>
<path d="M115.527 65.9495H116.157V66.5422C116.654 65.9824 117.084 65.7848 117.78 65.7848C118.608 65.7848 119.204 66.1141 119.403 66.7728C119.502 67.0033 119.502 67.2338 119.502 67.7278V70.9882H118.873V67.7608C118.873 67.2668 118.84 67.0692 118.74 66.8716C118.542 66.5093 118.177 66.3446 117.647 66.3446C116.985 66.3446 116.488 66.674 116.256 67.2338C116.157 67.4973 116.124 67.6949 116.124 68.2218V71.0211H115.494V65.9495H115.527Z" fill="#67676A"/>
<path d="M125.332 70.132C125.332 71.0541 125.233 71.5151 125.067 71.8445C124.703 72.4702 124.007 72.7995 123.047 72.7995C121.887 72.7995 121.192 72.3385 121.059 71.4822H121.722C121.755 71.7127 121.821 71.8445 121.953 71.9762C122.185 72.1738 122.649 72.3385 123.113 72.3385C123.643 72.3385 124.14 72.1409 124.372 71.8115C124.603 71.5151 124.67 71.2846 124.67 70.3954L124.703 70.132C124.173 70.7577 123.742 70.9553 123.047 70.9553C121.688 70.9553 120.827 69.9344 120.827 68.3865C120.827 66.8386 121.722 65.7848 123.047 65.7848C123.742 65.7848 124.272 66.0483 124.703 66.6411V65.9495H125.332V70.132ZM121.423 68.3865C121.423 69.6709 122.053 70.4284 123.08 70.4284C124.14 70.4284 124.736 69.6709 124.736 68.3536C124.736 67.0362 124.14 66.3117 123.113 66.3117C122.053 66.3117 121.423 67.135 121.423 68.3865Z" fill="#67676A"/>
<path d="M129.341 72.2068C129.539 72.2726 129.639 72.3056 129.771 72.3056C130.102 72.3056 130.367 72.075 130.533 71.614L130.798 70.9553L128.811 65.9824H129.506L131.096 70.1649L132.653 65.9824H133.316L131.03 71.8774C130.732 72.602 130.434 72.8325 129.804 72.8325C129.672 72.8325 129.572 72.7996 129.374 72.7996L129.341 72.2068Z" fill="#67676A"/>
<path d="M138.383 68.5182C138.383 70.1319 137.489 71.1199 136.032 71.1199C134.574 71.1199 133.68 70.1319 133.68 68.4853C133.68 66.8716 134.607 65.7848 136.032 65.7848C137.456 65.8177 138.383 66.8716 138.383 68.5182ZM134.342 68.5182C134.342 69.8355 134.972 70.6259 136.065 70.6259C137.125 70.6259 137.754 69.8685 137.754 68.5841C137.754 67.2338 137.092 66.4105 136.065 66.4105C134.972 66.3446 134.342 67.168 134.342 68.5182Z" fill="#67676A"/>
<path d="M143.651 70.9882H143.021V70.3954C142.525 70.9553 142.094 71.1529 141.398 71.1529C140.57 71.1529 139.974 70.8235 139.775 70.1649C139.676 69.9014 139.676 69.7367 139.676 69.0781V65.9494H140.305V69.111C140.305 69.7038 140.338 69.8355 140.438 70.0661C140.636 70.4283 141.001 70.593 141.531 70.593C142.061 70.593 142.491 70.3954 142.756 70.0331C142.955 69.7367 143.055 69.4074 143.055 68.8805V65.9165H143.684L143.651 70.9882Z" fill="#67676A"/>
<path d="M148.123 69.4075C148.189 70.1979 148.653 70.5931 149.58 70.5931C150.342 70.5931 150.839 70.2308 150.839 69.6051C150.839 69.2757 150.706 69.1111 150.309 68.9464C150.077 68.8476 149.978 68.8147 148.984 68.6171C148.056 68.4195 147.659 68.0243 147.659 67.2998C147.659 66.3776 148.355 65.8507 149.514 65.8507C150.673 65.8507 151.303 66.3776 151.402 67.4315H150.773C150.64 66.707 150.309 66.4435 149.448 66.4435C148.719 66.4435 148.288 66.7399 148.288 67.2668C148.288 67.5632 148.421 67.7938 148.686 67.9255C148.885 68.0243 148.951 68.0572 149.746 68.2219C150.441 68.3866 150.673 68.4854 150.971 68.6171C151.336 68.8147 151.502 69.144 151.502 69.638C151.502 70.626 150.74 71.2188 149.547 71.2188C148.288 71.2188 147.526 70.5931 147.526 69.5063L148.123 69.4075Z" fill="#67676A"/>
<path d="M156.669 70.9882H156.04V70.3954C155.543 70.9553 155.112 71.1529 154.417 71.1529C153.589 71.1529 152.992 70.8235 152.794 70.1649C152.694 69.9014 152.694 69.7367 152.694 69.0781V65.9494H153.324V69.111C153.324 69.7038 153.357 69.8355 153.456 70.0661C153.655 70.4283 154.019 70.593 154.549 70.593C155.079 70.593 155.51 70.3954 155.775 70.0331C155.974 69.7367 156.073 69.4074 156.073 68.8805V65.9165H156.703L156.669 70.9882Z" fill="#67676A"/>
<path d="M162.267 69.2427C161.969 70.4613 161.24 71.1199 160.147 71.1199C158.789 71.1199 157.928 70.0661 157.928 68.5182C157.928 66.8716 158.855 65.7848 160.28 65.7848C161.373 65.7848 162.135 66.4434 162.3 67.4973H161.671C161.572 66.7398 161.108 66.3446 160.313 66.3446C159.22 66.3446 158.59 67.135 158.59 68.4524C158.59 69.7038 159.253 70.5271 160.247 70.5271C161.042 70.5271 161.572 70.0661 161.671 69.2098H162.267V69.2427Z" fill="#67676A"/>
<path d="M167.501 69.2427C167.202 70.4613 166.474 71.1199 165.381 71.1199C164.022 71.1199 163.161 70.0661 163.161 68.5182C163.161 66.8716 164.089 65.7848 165.513 65.7848C166.606 65.7848 167.368 66.4434 167.534 67.4973H166.904C166.805 66.7398 166.341 66.3446 165.546 66.3446C164.453 66.3446 163.824 67.135 163.824 68.4524C163.824 69.7038 164.486 70.5271 165.48 70.5271C166.275 70.5271 166.805 70.0661 166.904 69.2098H167.501V69.2427Z" fill="#67676A"/>
<path d="M172.768 69.4074C172.602 69.8356 172.503 70.0661 172.304 70.2966C171.94 70.8236 171.277 71.12 170.549 71.12C169.157 71.12 168.329 70.132 168.329 68.5512C168.329 66.9045 169.223 65.8177 170.615 65.8177C171.675 65.8177 172.404 66.4105 172.635 67.3985C172.702 67.662 172.735 67.8596 172.768 68.5512H168.958C168.992 69.8685 169.555 70.593 170.615 70.593C171.41 70.593 171.94 70.1649 172.139 69.4074H172.768ZM172.139 68.0243C172.072 66.9375 171.542 66.3447 170.648 66.3447C170.118 66.3447 169.621 66.6081 169.323 67.0033C169.124 67.2997 169.058 67.5303 168.958 68.0243H172.139Z" fill="#67676A"/>
<path d="M178.201 69.4074C178.035 69.8356 177.936 70.0661 177.737 70.2966C177.372 70.8236 176.71 71.12 175.981 71.12C174.59 71.12 173.762 70.132 173.762 68.5512C173.762 66.9045 174.656 65.8177 176.047 65.8177C177.107 65.8177 177.836 66.4105 178.068 67.3985C178.134 67.662 178.167 67.8596 178.201 68.5512H174.391C174.424 69.8685 174.987 70.593 176.047 70.593C176.842 70.593 177.372 70.1649 177.571 69.4074H178.201ZM177.538 68.0243C177.472 66.9375 176.942 66.3447 176.047 66.3447C175.517 66.3447 175.02 66.6081 174.722 67.0033C174.524 67.2997 174.457 67.5303 174.358 68.0243H177.538Z" fill="#67676A"/>
<path d="M183.07 70.9882V70.2966C182.54 70.8894 182.076 71.1199 181.414 71.1199C180.089 71.1199 179.194 70.0332 179.194 68.4524C179.194 66.8387 180.022 65.8178 181.381 65.8178C182.076 65.8178 182.54 66.0812 183.07 66.7069V63.9735H183.699V70.9882H183.07ZM179.791 68.3865C179.791 69.7368 180.42 70.5601 181.447 70.5601C181.977 70.5601 182.441 70.2966 182.739 69.8685C182.971 69.5062 183.037 69.111 183.037 68.4853C183.037 67.7937 182.937 67.3327 182.672 66.9704C182.374 66.5752 181.877 66.3117 181.347 66.3117C180.354 66.3447 179.791 67.1021 179.791 68.3865Z" fill="#67676A"/>
</g>
<defs>
<clipPath id="clip0_2010_6851">
<rect width="184.574" height="89.5119" fill="white" transform="translate(0.0527344 0.248169)"/>
</clipPath>
</defs>
</svg>
