<svg width="80" height="81" viewBox="0 0 80 81" fill="none" xmlns="http://www.w3.org/2000/svg">
<path d="M33.5714 19.0714H37.8571M27.1429 25.5V14.7857C27.1429 13.6491 27.5944 12.559 28.3981 11.7553C29.2018 10.9515 30.2919 10.5 31.4286 10.5H48.5714C49.7081 10.5 50.7982 10.9515 51.6019 11.7553C52.4056 12.559 52.8571 13.6491 52.8571 14.7857V36.2143C52.8571 37.3509 52.4056 38.441 51.6019 39.2447C50.7982 40.0485 49.7081 40.5 48.5714 40.5H31.4286C30.2919 40.5 29.2018 40.9515 28.3981 41.7553C27.5944 42.559 27.1429 43.6491 27.1429 44.7857V66.2143C27.1429 67.3509 27.5944 68.441 28.3981 69.2447C29.2018 70.0485 30.2919 70.5 31.4286 70.5H48.5714C49.7081 70.5 50.7982 70.0485 51.6019 69.2447C52.4056 68.441 52.8571 67.3509 52.8571 66.2143V55.5M42.1429 27.6429H14.2857C13.1491 27.6429 12.059 28.0944 11.2553 28.8981C10.4515 29.7018 10 30.7919 10 31.9286V53.3571C10 54.4938 10.4515 55.5839 11.2553 56.3876C12.059 57.1913 13.1491 57.6429 14.2857 57.6429H27.1429M37.8571 53.3571H65.7143C66.8509 53.3571 67.941 52.9056 68.7447 52.1019C69.5485 51.2982 70 50.2081 70 49.0714V27.6429C70 26.5062 69.5485 25.4161 68.7447 24.6124C67.941 23.8087 66.8509 23.3571 65.7143 23.3571H52.8571M42.1429 61.9286H46.4286" stroke="#1A181B" stroke-width="2" stroke-linecap="round" stroke-linejoin="round"/>
</svg>
