<svg width="148" height="56" viewBox="0 0 148 56" fill="none" xmlns="http://www.w3.org/2000/svg">
<g clip-path="url(#clip0_4101_307)">
<path d="M134.457 54.164C132.675 54.3866 131.562 54.3866 131.117 54.6093C130.226 55.0547 128.222 55.5 125.772 55.5C122.655 55.5 119.76 54.3866 117.311 52.6053H115.529C114.861 52.6053 114.416 52.6053 113.748 52.3826C111.299 53.2733 109.072 53.2733 107.736 53.2733H107.291C104.173 53.496 101.056 52.8279 98.3837 51.4919C97.0477 51.9372 95.9343 52.1599 94.5983 52.1599L86.3594 52.3826C82.574 52.3826 79.2339 51.0466 76.5619 48.5972C75.4485 48.5972 74.3352 48.3745 73.4445 48.1518C72.1084 49.7105 70.3271 51.0466 68.1003 52.1599C63.8696 54.164 59.1935 54.3866 54.74 52.6053C54.2947 52.3826 53.6267 52.1599 53.1813 51.9372L48.0599 52.6053H46.5011C45.8331 52.8279 45.3878 53.2733 44.9424 53.4959C41.6024 55.0547 38.485 55.0547 37.1489 55.0547H36.0356C32.2501 55.0547 28.4647 53.9413 25.57 51.9372C24.6793 52.1599 23.5659 52.3826 22.6752 52.3826C20.6712 53.7186 18.2218 54.6093 15.5497 54.832H14.659C7.31087 54.832 1.29872 49.2652 0.630704 41.917V41.6943C0.630704 40.581 0.408032 38.1316 0.630704 35.4595C0.630704 34.1235 0.853376 32.1194 0.853376 31.6741C0.853376 29.8927 1.29872 28.1113 1.96674 26.33C1.52139 24.5486 1.74406 22.7672 1.96674 20.9858V20.3178C2.18941 18.7591 2.63475 15.6417 4.19346 12.5243C7.08819 7.18016 12.4323 3.84008 18.4445 3.84008C20.4485 2.72672 22.4526 2.28138 24.6793 2.28138H25.3473C29.8007 2.50405 33.8088 4.73077 36.2582 8.29352C38.2623 6.51215 40.7117 5.39879 43.3837 4.95344C48.7279 4.28542 53.1813 4.06275 56.9667 4.73077C58.9708 2.94939 61.6428 1.61336 64.3149 1.39069L70.1044 0.5H71.8858C75.2258 0.5 78.5659 1.83603 81.238 4.06275H81.6833L90.1449 3.84008C93.7076 3.84008 96.825 3.61741 97.493 3.61741H98.6064C101.724 3.61741 105.064 4.73077 107.513 6.73482C109.963 4.95344 112.857 4.06275 115.975 4.06275H118.87C121.096 2.72672 123.546 1.83603 126.218 1.83603L133.343 1.61336H133.566C141.137 1.61336 147.372 7.84818 147.594 15.419C147.594 18.9818 146.481 22.0992 144.254 24.7713V31.2287C146.258 33.4555 147.372 36.3502 147.594 39.4676C148.04 47.0385 142.25 53.4959 134.457 54.164Z" fill="white"/>
<path d="M134.011 46.1477C131.116 46.3704 129.335 46.593 128.889 46.8157L128.667 47.0384C127.999 47.2611 127.108 47.7064 125.995 47.7064C124.658 47.7064 123.1 47.2611 121.986 46.1477C121.541 45.7024 121.096 45.257 120.873 44.8117H115.752C114.861 44.8117 113.97 44.589 113.302 44.1437C113.08 44.3663 112.634 44.3663 112.412 44.589C110.63 45.4797 109.071 45.4797 107.958 45.4797H106.845C103.505 45.4797 100.833 44.3663 99.0512 42.3623C97.9378 43.4756 96.3791 44.1437 94.8204 44.1437L86.5816 44.3663C83.6868 44.3663 81.0148 42.1396 80.5694 39.4675C79.456 40.1356 78.3427 40.5809 77.0067 40.5809C75.6706 40.5809 74.3346 40.1356 73.2212 39.4675C72.9986 39.2449 72.7759 39.0222 72.5532 39.0222C71.8852 39.4675 70.9945 39.4675 70.1038 39.4675H69.4358C68.5451 42.1396 66.9864 43.921 64.537 45.0343C63.4237 45.4797 62.0876 45.925 60.9743 45.925C59.8609 45.925 58.5249 45.7024 57.4115 45.257C56.2982 44.8117 55.4075 44.1437 54.7394 43.4756C54.2941 43.6983 53.8488 43.6983 53.4034 43.921L46.9459 44.8117H46.0552C45.3872 44.8117 44.9419 44.8117 44.2739 44.589C43.3832 45.4797 42.2698 45.925 41.3791 46.3704C39.5977 47.2611 38.039 47.2611 36.9257 47.2611H35.8123C31.8042 47.2611 28.6868 45.4797 26.9054 43.0303C25.1241 44.1437 22.8973 44.8117 20.8933 44.8117H19.5573C19.5573 45.0343 19.3346 45.0343 19.3346 45.257C18.2212 46.3704 16.6625 47.2611 15.1038 47.2611H14.6585C11.5411 47.2611 8.869 44.8117 8.64633 41.4716V41.2489C8.64633 40.1356 8.42366 38.1315 8.64633 35.9048C8.64633 34.3461 8.869 31.8967 8.869 31.8967C8.869 30.338 9.53702 29.002 10.4277 27.8886C9.53702 26.1072 9.31434 24.1032 9.75969 21.8765V21.4311C9.98236 20.0951 10.205 18.091 11.0957 16.087C12.6544 13.1922 15.5492 11.6335 18.8892 11.6335H20.4479C21.5613 10.7428 22.8973 10.0748 24.456 10.0748C27.7961 10.0748 30.4682 12.9696 30.4682 16.3097V18.759C31.5816 18.3137 32.9176 18.091 34.2536 18.091C34.9216 18.091 35.367 18.091 36.035 18.3137C36.9257 17.2003 38.2617 16.5323 39.5977 16.3097C39.8204 15.8643 40.0431 15.6416 40.2658 15.1963C41.1565 13.8603 42.7152 12.9696 44.2739 12.7469C45.6099 12.5242 48.282 12.3016 51.3994 12.3016C54.9621 12.3016 57.8569 12.7469 60.0836 13.8603C60.7516 11.4109 62.533 9.62949 65.205 9.18415L70.9945 8.29346H71.8852C73.6666 8.29346 75.2253 8.96147 76.3386 10.2975C76.784 10.7428 77.452 11.6335 77.6747 12.3016L77.8973 12.9696C79.0107 12.3016 80.1241 11.8562 81.4601 11.8562L90.1443 11.6335C94.3751 11.6335 98.1605 11.4109 98.1605 11.1882H98.6058C100.165 11.1882 101.946 11.8562 103.059 12.9696C103.95 13.8603 104.618 14.9736 104.841 16.3097H105.286C105.954 16.3097 106.399 16.3097 107.067 16.5323C107.958 15.419 109.294 14.7509 110.63 14.5283C111.743 12.9696 113.748 11.6335 115.974 11.6335H121.764C122.877 10.2975 124.436 9.40682 126.44 9.40682H133.565C136.905 9.40682 139.578 12.0789 139.8 15.419C139.8 17.8684 138.464 20.0951 136.46 20.9858V34.5688C138.241 35.4594 139.578 37.4635 139.8 39.6902C140.023 43.0303 137.351 45.925 134.011 46.1477Z" fill="#F9A83A"/>
<path d="M72.3307 19.4272L70.772 27.4434L75.2254 26.7754L72.3307 19.4272Z" fill="#F9A83A"/>
<path d="M19.1116 27.2206C17.5529 26.998 16.6622 25.8846 17.1076 22.7672V22.3219C17.5529 19.6498 17.7756 18.9818 19.1116 18.9818C19.5569 18.9818 20.0023 19.2045 20.4476 19.6498C20.893 20.0951 21.7837 20.7632 22.229 22.0992C22.6744 22.9899 22.6744 23.6579 22.897 24.3259V25.2166C22.897 25.6619 23.3424 26.1073 24.0104 26.33C24.6784 26.5526 25.3464 25.8846 25.5691 25.2166C25.5691 25.2166 26.0144 16.7551 26.0144 16.5324C26.0144 15.8644 25.3464 15.1964 24.6784 15.1964C24.0104 15.1964 23.3424 15.8644 23.3424 16.5324V18.9818C22.229 17.8684 20.893 16.7551 19.3343 16.7551C15.1035 16.087 14.6582 19.8725 14.4355 22.0992V22.5445C13.9901 26.7753 15.3262 29.4474 18.6663 30.1154C22.229 30.7834 24.6784 31.4514 24.6784 33.6781C24.6784 34.5688 24.2331 35.4595 23.3424 36.1275C22.4517 37.0182 21.1156 37.2409 19.7796 37.0182C19.3343 37.0182 19.1116 36.7955 18.6663 36.7955C18.2209 36.5729 16.8849 35.9049 16.4395 35.0142C16.2169 34.1235 15.9942 33.0101 15.9942 32.3421V31.8968C15.9942 31.2287 15.3262 30.5607 14.6582 30.5607C13.9901 30.5607 13.3221 31.2287 13.3221 31.8968C13.3221 31.8968 13.3221 34.5688 13.0995 36.1275C12.8768 38.7996 13.0995 40.8036 13.0995 41.0263C13.0995 41.6943 13.7675 42.3623 14.4355 42.3623C15.1035 42.3623 15.7715 41.6943 15.7715 41.0263V38.5769C16.6622 39.2449 17.9982 39.9129 19.5569 40.1356C21.561 40.581 23.565 39.913 25.1237 38.5769C26.4598 37.4636 27.3505 35.6822 27.3505 34.1235C27.3505 28.5567 21.7837 27.666 19.1116 27.2206ZM56.5205 23.4352C56.2978 23.6579 56.0752 23.8806 55.6298 24.1032C55.4071 24.3259 54.7391 24.5486 54.5165 24.5486L53.8484 24.7713C52.9578 25.2166 51.6217 25.4393 50.2857 25.6619V19.4271C53.8484 19.4271 56.9659 19.6498 57.6339 20.7632V21.2085C57.6339 21.6538 57.1885 22.5445 56.5205 23.4352ZM64.314 35.4595C63.646 35.2368 62.7553 35.6822 62.5326 36.3502C62.0873 37.9089 61.642 37.9089 61.4193 38.1316C61.1966 38.3542 60.7513 38.1316 60.0833 37.9089C60.0833 37.9089 59.8606 37.4636 59.6379 37.2409C59.4152 36.7955 59.1926 35.0142 59.1926 33.9008C59.1926 29.8927 58.3019 27.666 57.1885 26.5526C57.8565 26.1073 58.5246 25.4393 58.5246 25.4393C60.0833 23.2125 60.5286 21.4312 59.6379 19.8725C57.4112 16.087 47.8363 17.2004 44.7189 17.6457C44.0509 17.6457 43.3829 18.5364 43.6055 19.2044C43.6055 19.8725 44.4962 20.5405 45.1642 20.3178C45.8322 20.3178 46.5003 20.0951 47.1683 20.0951V26.33H46.5003C45.8322 26.33 45.1642 26.998 45.1642 27.666C45.1642 28.334 45.8322 29.002 46.5003 29.002H47.1683V36.7955L45.3869 37.0182C44.7189 37.0182 44.0509 37.9089 44.2735 38.5769C44.2735 39.2449 45.1642 39.913 45.8322 39.6903L52.2897 38.7996C52.9577 38.7996 53.6258 37.9089 53.4031 37.2409C53.4031 36.5729 52.5124 35.9049 51.8444 36.1275L49.8403 36.3502V28.5567C51.1764 28.334 52.2897 28.1113 53.4031 27.666H53.8484C54.2938 27.666 54.7391 27.8887 54.9618 28.334C55.4071 29.002 55.8525 30.3381 56.0752 33.6781C56.0752 34.3461 56.2978 37.0182 56.7432 38.1316C56.9658 38.5769 57.6339 39.6903 58.7472 40.1356C59.6379 40.3583 60.7513 40.8036 62.0873 40.1356C63.2007 39.4676 64.0914 38.7996 64.5367 36.7955C65.4274 36.3502 64.982 35.6822 64.314 35.4595ZM112.857 31.2287C112.189 31.2287 111.521 31.8968 111.521 32.5648V34.3461C111.521 35.0142 111.298 35.9049 111.075 36.1275C110.852 36.5729 110.63 36.7955 110.184 37.2409C109.962 37.4636 109.516 37.6862 109.071 37.9089C108.626 38.1316 108.403 38.1316 107.512 38.1316H106.622C103.059 38.3542 102.614 35.4595 102.614 34.7915V29.002C102.836 26.7753 103.282 25.2166 104.172 24.5486C104.84 24.1032 105.731 24.3259 107.29 24.7713C109.071 25.4393 110.184 27.4433 110.407 27.4433C110.63 27.8887 111.298 28.1113 111.966 28.1113C112.634 27.8887 112.857 27.4433 112.857 26.7753V20.7632C112.857 20.0951 112.189 19.4271 111.521 19.4271C110.852 19.4271 110.184 20.0951 110.184 20.7632V23.2125C109.739 22.7672 109.071 22.5445 108.403 22.0992C107.735 21.6538 105.063 20.5405 103.059 21.8765C101.5 22.9899 100.387 24.9939 100.164 28.334V34.5688C100.387 36.5729 101.946 40.581 106.844 40.581H107.512C108.403 40.581 109.294 40.581 110.184 40.1356C110.852 39.9129 111.521 39.4676 112.189 38.7996C112.634 38.3542 112.857 37.9089 113.302 37.2409C113.747 36.3502 113.97 34.7915 114.193 34.3461V32.1194C114.193 31.6741 113.525 31.2287 112.857 31.2287ZM134.901 40.1356C134.901 39.4676 134.233 38.7996 133.565 38.7996C133.12 38.7996 132.452 38.7996 131.784 39.0223C131.784 36.7955 131.784 32.1194 131.561 16.9777H133.565C134.233 16.9777 134.901 16.3097 134.901 15.6417C134.901 14.9737 134.233 14.3057 133.565 14.3057L126.44 14.5283C125.772 14.5283 125.104 15.1964 125.104 15.8644C125.104 16.5324 125.772 17.2004 126.44 17.2004H128.666V26.5526L120.65 27.8887V19.4271H122.877C123.545 19.4271 124.213 18.7591 124.213 18.0911C124.213 17.4231 123.545 16.7551 122.877 16.7551H115.751C115.083 16.7551 114.415 17.4231 114.415 18.0911C114.415 18.7591 115.083 19.4271 115.751 19.4271H117.978V37.4636H115.751C115.083 37.4636 114.415 38.1316 114.415 38.7996C114.415 39.4676 115.083 40.1356 115.751 40.1356L123.099 40.3583C123.767 40.3583 124.435 39.6903 124.435 39.0223C124.435 38.3542 123.767 37.6862 123.099 37.6862H120.873V30.7834L128.889 29.4474V39.6903C127.108 40.1356 125.772 40.1356 125.104 41.0263C124.658 41.4717 124.658 42.3623 125.326 42.8077C125.772 43.253 126.44 43.0304 127.33 42.8077C127.998 42.3623 130.67 42.1397 133.788 41.917C134.456 41.4717 134.901 40.8036 134.901 40.1356Z" fill="white"/>
<path d="M70.7726 27.4434L72.3313 19.4272L75.226 26.7754L70.7726 27.4434ZM82.5742 29.6701C82.1289 29.8928 81.4609 30.1155 80.1248 30.7835L78.3435 26.5527L73.222 14.3057C73.222 14.0831 72.9993 13.6377 72.7767 13.6377C72.554 13.4151 72.1086 13.1924 71.6633 13.1924L65.8738 13.8604C65.2058 13.8604 64.5378 14.5284 64.7605 15.4191C64.7605 16.0871 65.4285 16.7551 66.3192 16.5325C66.3192 16.5325 68.5459 16.3098 70.3273 16.0871C69.8819 18.5365 67.8779 28.5568 67.2099 31.6742L63.2018 31.4515C62.5337 31.4515 61.8657 31.8968 61.8657 32.7875C61.8657 33.4555 62.3111 34.1236 63.2018 34.1236L69.8819 34.3462C70.5499 34.3462 71.2179 33.9009 71.2179 33.0102C71.2179 32.3422 70.7726 31.6742 69.8819 31.6742L70.1046 29.6701L76.3394 28.5568L77.6754 31.8968C76.5621 32.5649 76.1167 32.7875 75.4487 33.4555C75.0034 34.1236 75.226 34.7916 75.6714 35.2369C76.3394 35.6823 77.2301 35.4596 77.6754 35.0142C78.3435 34.1236 80.7929 33.0102 83.2422 32.1195C83.9103 31.8968 84.3556 31.0061 84.1329 30.3381C83.9103 29.8928 83.2422 29.4474 82.5742 29.6701Z" fill="white"/>
<path d="M98.607 16.0872C98.607 16.0872 94.5989 16.3098 90.1455 16.5325L81.4613 16.7552C81.0159 16.7552 80.7932 16.9778 80.3479 17.2005C80.1252 17.4232 79.9025 17.8685 80.1252 18.3139L81.2386 24.994C81.2386 25.6621 82.1293 26.3301 82.7973 26.1074C83.4653 26.1074 83.9106 25.4394 83.9106 24.7714C83.9106 24.7714 83.4653 21.2086 83.02 19.4272H88.8094V37.0183H85.9147C85.2467 37.0183 84.5787 37.6863 84.5787 38.3544C84.5787 39.0224 85.2467 39.6904 85.9147 39.6904L94.1536 39.4677C94.8216 39.4677 95.4896 38.7997 95.4896 38.1317C95.4896 37.4637 94.8216 36.7957 94.1536 36.7957H91.4815V19.2046C93.7082 19.2046 95.7123 18.9819 97.0483 18.9819V21.654C97.0483 22.99 97.271 23.4353 97.271 23.658C97.7163 24.326 98.3843 24.5487 99.0523 24.1034C99.4977 23.8807 99.7204 23.2127 99.7204 22.7673C99.7204 22.7673 99.7204 19.6499 99.943 17.8685C99.943 17.4232 99.943 17.2005 99.4977 16.7552C99.4977 16.3098 99.0523 16.0872 98.607 16.0872ZM41.8256 32.5649C41.1576 32.5649 40.4896 33.2329 40.4896 33.9009V35.905C40.4896 36.3503 40.2669 37.241 40.0442 37.6863C39.8216 38.1317 39.5989 38.3544 39.1536 38.7997C38.9309 39.0224 38.4855 39.2451 38.0402 39.4677C37.5949 39.6904 37.3722 39.6904 36.4815 39.6904H35.5908C32.0281 39.6904 31.5827 37.0183 31.5827 36.3503V30.5608C31.8054 28.3341 32.2507 26.7754 33.1414 26.1074C33.8094 25.6621 34.7001 25.8847 36.2588 26.3301C38.0402 26.9981 39.3762 29.0021 39.3762 29.0021C39.5989 29.4475 40.2669 29.6702 40.9349 29.6702C41.603 29.4475 41.8256 29.0021 41.8256 28.3341V22.322C41.8256 21.654 41.1576 20.9859 40.4896 20.9859C39.8216 20.9859 39.1536 21.654 39.1536 22.322V24.7714C38.7082 24.326 38.0402 23.8807 37.3722 23.658C36.4815 23.2127 34.0321 22.322 31.8054 23.4353C30.2467 24.5487 29.1333 26.5527 28.9106 29.8928V36.1276C29.1333 38.1317 30.692 42.1398 35.8135 42.1398H36.4815C37.3722 42.1398 38.2629 42.1398 39.1536 41.6944C39.8216 41.4718 40.4896 41.0264 41.1576 40.3584C41.603 39.9131 41.8256 39.4677 42.271 38.7997C42.7163 37.909 42.939 36.3503 43.1617 35.905V33.6782C43.1617 33.2329 42.4936 32.5649 41.8256 32.5649Z" fill="white"/>
</g>
<defs>
<clipPath id="clip0_4101_307">
<rect width="147.186" height="55" fill="white" transform="translate(0.406738 0.5)"/>
</clipPath>
</defs>
</svg>
