<svg width="80" height="81" viewBox="0 0 80 81" fill="none" xmlns="http://www.w3.org/2000/svg">
<path fill-rule="evenodd" clip-rule="evenodd" d="M64.9987 70.5H14.9987C11.3154 70.5 8.33203 67.5167 8.33203 63.8333V17.1667C8.33203 13.4833 11.3154 10.5 14.9987 10.5H64.9987C68.682 10.5 71.6654 13.4833 71.6654 17.1667V63.8333C71.6654 67.5167 68.682 70.5 64.9987 70.5Z" stroke="#1A181B" stroke-width="2" stroke-linecap="round" stroke-linejoin="round"/>
<path d="M26.6667 27.1667V70.5001" stroke="#1A181B" stroke-width="2" stroke-linecap="square"/>
<path d="M8.33203 27.1667H71.6654" stroke="#1A181B" stroke-width="2" stroke-linecap="round" stroke-linejoin="round"/>
<path d="M18.3503 18.7999C18.3403 18.7999 18.3336 18.8066 18.3336 18.8166C18.3336 18.8266 18.3403 18.8332 18.3503 18.8332C18.3603 18.8332 18.3669 18.8266 18.3669 18.8166C18.3669 18.8066 18.3603 18.7999 18.3503 18.7999" stroke="#1A181B" stroke-width="2" stroke-linecap="round" stroke-linejoin="round"/>
<path d="M26.8268 18.7999C26.8168 18.7999 26.8102 18.8066 26.8102 18.8166C26.8102 18.8266 26.8168 18.8332 26.8268 18.8332C26.8368 18.8332 26.8435 18.8266 26.8435 18.8166C26.8435 18.8066 26.8368 18.7999 26.8268 18.7999" stroke="#1A181B" stroke-width="2" stroke-linecap="round" stroke-linejoin="round"/>
<path d="M35.2936 18.7999C35.2836 18.7999 35.277 18.8066 35.277 18.8166C35.277 18.8266 35.2836 18.8332 35.2936 18.8332C35.3036 18.8332 35.3103 18.8266 35.3103 18.8166C35.3103 18.8066 35.3003 18.7999 35.2936 18.7999" stroke="#1A181B" stroke-width="2" stroke-linecap="round" stroke-linejoin="round"/>
</svg>
