<?xml version="1.0" standalone="no"?>
<!DOCTYPE svg PUBLIC "-//W3C//DTD SVG 20010904//EN"
 "http://www.w3.org/TR/2001/REC-SVG-20010904/DTD/svg10.dtd">
<svg version="1.0" xmlns="http://www.w3.org/2000/svg"
 width="360.000000pt" height="360.000000pt" viewBox="0 0 360.000000 360.000000"
 preserveAspectRatio="xMidYMid meet">
<metadata>
Created by potrace 1.14, written by Peter Selinger 2001-2017
</metadata>
<g transform="translate(0.000000,360.000000) scale(0.100000,-0.100000)"
fill="#000000" stroke="none">
<path d="M560 3493 c-25 -3 -49 -8 -54 -14 -6 -5 -20 -9 -33 -9 -12 0 -53 -16
-90 -36 -93 -50 -199 -159 -237 -245 -16 -35 -32 -71 -37 -81 -17 -34 -20
-170 -8 -378 6 -118 15 -285 19 -370 10 -219 28 -523 35 -604 7 -76 23 -343
34 -591 26 -537 37 -666 60 -720 35 -82 47 -105 72 -140 51 -72 140 -155 168
-155 6 0 11 -4 11 -10 0 -5 9 -10 20 -10 11 0 20 -4 20 -8 0 -9 57 -27 135
-44 68 -15 2194 -23 2209 -8 5 5 25 10 43 10 30 0 83 16 143 43 104 47 210
154 257 257 44 98 51 163 78 660 8 157 18 317 21 355 3 39 9 151 14 250 6 99
14 252 19 340 5 88 14 255 20 370 6 116 16 249 21 296 16 139 13 381 -6 442
-8 29 -20 60 -25 69 -5 10 -9 25 -9 33 0 8 -4 15 -10 15 -5 0 -10 7 -10 15 0
8 -4 15 -9 15 -5 0 -12 9 -16 19 -9 30 -123 141 -144 141 -5 0 -11 3 -13 8 -5
11 -64 42 -82 42 -9 0 -16 4 -16 9 0 9 -26 16 -120 31 -52 8 -2386 11 -2480 3z
m1615 -531 c107 -18 185 -36 185 -44 0 -5 9 -8 19 -8 23 0 144 -51 149 -62 2
-4 12 -8 23 -8 10 0 19 -4 19 -10 0 -5 5 -10 11 -10 27 0 228 -182 229 -207 0
-6 4 -13 8 -15 28 -11 132 -255 132 -309 0 -14 5 -30 12 -37 18 -18 17 -414
-1 -436 -18 -21 -19 -155 -2 -165 16 -10 19 -207 3 -237 -5 -11 -20 -39 -32
-64 -30 -59 -55 -86 -109 -118 -35 -21 -56 -25 -108 -24 l-64 1 -17 -37 c-9
-20 -19 -39 -22 -42 -3 -3 -14 -21 -25 -41 -11 -20 -31 -52 -45 -70 -34 -46
-153 -169 -164 -169 -5 0 -16 -8 -25 -18 -9 -9 -34 -26 -56 -37 -22 -11 -42
-22 -45 -25 -10 -11 -132 -60 -149 -60 -9 0 -21 -4 -26 -9 -24 -22 -349 -41
-368 -22 -6 6 -27 11 -47 11 -20 0 -40 4 -45 8 -6 4 -37 17 -70 27 -33 11 -62
22 -65 25 -3 3 -31 18 -62 35 -32 16 -58 33 -58 37 0 4 -5 8 -10 8 -14 0 -30
13 -108 91 -75 74 -93 97 -124 151 -12 21 -25 38 -30 38 -4 0 -8 5 -8 12 0 6
-9 31 -20 54 -20 41 -22 42 -53 33 -46 -13 -157 11 -157 33 0 5 -5 8 -11 8 -6
0 -16 6 -22 13 -90 95 -128 245 -95 374 7 27 15 50 19 53 14 12 17 56 5 84
-25 59 -37 133 -37 235 -1 107 20 271 33 271 4 0 8 15 8 34 0 19 5 38 10 41 6
3 10 12 10 20 0 22 56 135 98 200 59 89 168 195 201 195 6 0 11 3 11 8 0 4 21
15 48 25 26 11 56 23 67 27 23 10 125 24 170 23 57 0 166 -16 171 -24 3 -5 14
0 25 10 11 10 37 27 59 37 22 10 40 22 40 27 0 4 11 7 24 7 13 0 26 3 28 8 5
12 112 42 151 42 20 0 39 5 42 11 8 12 175 6 270 -9z"/>
<path d="M1845 2778 c-112 -39 -174 -76 -231 -137 -20 -21 -37 -32 -41 -26
-22 29 -121 55 -207 55 -60 0 -153 -17 -166 -30 -3 -3 -17 -11 -32 -19 -74
-38 -208 -204 -208 -257 0 -8 -4 -14 -9 -14 -5 0 -11 -12 -14 -27 -3 -16 -15
-63 -26 -107 -16 -59 -21 -109 -21 -202 0 -72 4 -125 10 -129 10 -6 40 17 40
30 0 4 30 36 67 72 68 67 190 153 216 153 9 0 17 6 19 12 3 9 39 13 128 13 89
0 125 -4 128 -13 2 -6 12 -12 22 -12 58 0 223 -139 236 -198 3 -15 9 -35 15
-44 12 -23 12 -68 -1 -68 -10 0 -14 -43 -4 -52 5 -6 55 8 86 23 10 5 24 9 32
9 7 0 27 7 42 15 16 8 37 15 47 15 9 0 17 5 17 10 0 6 9 10 20 10 11 0 20 3
20 8 0 4 13 13 29 20 16 7 42 24 57 37 16 14 32 25 36 25 4 0 20 12 36 28 15
15 40 36 55 47 15 11 27 23 27 28 0 10 46 57 56 57 4 0 14 -8 23 -18 24 -26
88 -72 100 -72 6 0 19 -4 29 -9 23 -12 80 -29 122 -36 42 -8 130 -69 137 -96
3 -10 9 -19 14 -19 5 0 9 -12 9 -27 0 -18 3 -24 10 -17 20 20 32 219 20 331
-6 59 -15 115 -21 124 -5 10 -9 27 -9 38 0 12 -4 29 -9 39 -5 9 -22 42 -37 73
-38 73 -60 105 -110 154 -70 68 -151 125 -179 125 -8 0 -15 3 -15 8 0 4 -28
15 -63 25 -34 11 -71 23 -82 27 -37 16 -99 22 -245 25 -84 2 -158 -1 -175 -7z"/>
<path d="M1360 1802 c0 -5 -11 -15 -25 -22 -14 -7 -25 -19 -25 -27 0 -7 -4
-13 -10 -13 -5 0 -10 -9 -10 -19 0 -11 -4 -23 -10 -26 -5 -3 -10 -19 -10 -35
0 -16 5 -32 10 -35 6 -3 10 -13 10 -21 0 -20 39 -62 74 -79 33 -17 116 -20
116 -5 0 6 7 10 17 10 9 0 29 14 45 32 25 28 28 39 28 102 0 69 -1 70 -41 108
-38 36 -44 38 -105 38 -35 0 -64 -4 -64 -8z"/>
<path d="M2210 1800 c-8 -5 -23 -10 -32 -10 -29 0 -95 -53 -117 -94 -12 -21
-24 -56 -27 -77 l-7 -39 217 0 216 0 0 31 c0 83 -65 154 -171 188 -43 13 -59
14 -79 1z"/>
<path d="M1450 1249 c0 -13 34 -84 43 -87 4 -2 7 -8 7 -13 0 -6 5 -15 10 -22
44 -52 60 -73 60 -79 0 -5 5 -8 10 -8 6 0 23 -11 38 -25 15 -14 32 -25 39 -25
7 0 13 -4 13 -10 0 -5 9 -10 20 -10 11 0 20 -4 20 -8 0 -12 128 -42 175 -42
47 0 175 30 175 42 0 4 6 8 14 8 18 0 76 32 76 43 0 4 6 7 13 7 17 1 75 69
119 142 41 67 46 88 23 88 -8 0 -15 -4 -15 -9 0 -5 -10 -11 -22 -14 -13 -3
-48 -13 -78 -23 -168 -51 -380 -52 -585 -4 -27 7 -54 16 -59 21 -6 5 -18 9
-28 9 -10 0 -18 4 -18 9 0 5 -11 11 -25 13 -14 3 -25 2 -25 -3z"/>
</g>
</svg>
